<svg xmlns="http://www.w3.org/2000/svg" xmlns:xlink="http://www.w3.org/1999/xlink" width="990" zoomAndPan="magnify" viewBox="0 0 742.5 269.999989" height="360" preserveAspectRatio="xMidYMid meet" version="1.0"><defs><clipPath id="f3ba03e9b7"><path d="M 22.5 28 L 721.027344 28 L 721.027344 239.179688 L 22.5 239.179688 Z M 22.5 28 " clip-rule="nonzero"/></clipPath><clipPath id="350793321b"><path d="M 0.542969 1 L 699 1 L 699 211.179688 L 0.542969 211.179688 Z M 0.542969 1 " clip-rule="nonzero"/></clipPath><clipPath id="25de68851a"><rect x="0" width="700" y="0" height="212"/></clipPath></defs><g clip-path="url(#f3ba03e9b7)"><g transform="matrix(1, 0, 0, 1, 22, 28)"><g clip-path="url(#25de68851a)"><g clip-path="url(#350793321b)"><path fill="#000000" d="M 0.824219 205.488281 C 1.640625 204.738281 1.773438 203.722656 2.019531 202.714844 C 3.394531 197.148438 5.105469 191.691406 8.191406 186.800781 C 11.773438 181.132812 16.703125 177.507812 23.582031 176.660156 C 27.046875 176.234375 30.492188 176.203125 33.949219 176.191406 C 41.964844 176.144531 47.757812 172.667969 51.070312 165.277344 C 51.796875 163.652344 52.613281 162.054688 53.203125 160.386719 C 55.308594 154.472656 57.363281 148.546875 59.378906 142.609375 C 60.921875 138.066406 62.644531 133.617188 65.015625 129.445312 C 68.402344 123.496094 72.597656 118.25 78.800781 114.996094 C 85.132812 111.675781 91.40625 111.945312 97.523438 115.644531 C 102.800781 118.832031 106.613281 123.382812 109.554688 128.742188 C 112.628906 134.332031 115.179688 140.179688 117.742188 146.007812 C 120.402344 152.058594 124.382812 157.101562 129.28125 161.40625 C 132.625 164.347656 136.585938 166.339844 140.878906 167.511719 C 147.207031 169.234375 152.890625 167.960938 157.910156 163.644531 C 162.195312 159.964844 165.222656 155.390625 167.683594 150.390625 C 169.015625 147.707031 170.246094 144.96875 171.644531 142.316406 C 173.914062 138.035156 177.480469 135.304688 182.15625 134.042969 C 183.867188 133.582031 185.621094 133.257812 187.355469 132.878906 C 190.050781 132.285156 192.523438 131.234375 194.644531 129.433594 C 198.4375 126.214844 201.167969 122.242188 202.964844 117.601562 C 205.582031 110.859375 207.136719 103.804688 208.984375 96.835938 C 211.453125 87.5 214.046875 78.183594 218.890625 69.726562 C 224.226562 60.425781 231.269531 52.742188 241.144531 48.15625 C 250.269531 43.917969 258.980469 44.859375 267.035156 51.019531 C 271.753906 54.621094 275.164062 59.261719 277.902344 64.472656 C 282.164062 72.546875 285.238281 81.089844 288.246094 89.679688 C 289.890625 94.375 291.625 99.027344 294.050781 103.378906 C 296.679688 108.0625 299.585938 112.515625 304.082031 115.691406 C 308.121094 118.542969 312.546875 119.792969 317.378906 118.765625 C 322.804688 117.613281 327.265625 114.917969 330.160156 109.941406 C 333.046875 104.953125 335.160156 99.664062 336.625 94.117188 C 339.253906 84.199219 339.777344 73.976562 340.417969 63.8125 C 340.953125 55.300781 340.898438 46.757812 341.746094 38.269531 C 342.328125 32.488281 343.15625 26.742188 345.136719 21.226562 C 347.785156 13.847656 351.992188 7.695312 359.167969 4.015625 C 368.640625 -0.835938 378.898438 1.8125 384.867188 10.625 C 386.992188 13.757812 388.390625 17.234375 389.5 20.835938 C 391.679688 27.925781 392.09375 35.195312 391.769531 42.542969 C 391.398438 50.808594 389.6875 58.882812 388.121094 66.976562 C 386.074219 77.578125 384.421875 88.214844 385.09375 99.074219 C 385.449219 104.976562 387.207031 110.5 389.8125 115.722656 C 391.847656 119.828125 395.335938 121.898438 400.054688 121.863281 C 403.332031 121.839844 406.304688 120.835938 409.257812 119.617188 C 411.851562 118.542969 414.414062 117.390625 417.132812 116.640625 C 423.425781 114.90625 428.617188 116.574219 432.574219 121.761719 C 434.105469 123.765625 435.449219 125.921875 436.824219 128.046875 C 437.910156 129.726562 439.230469 131.15625 440.882812 132.273438 C 444.585938 134.800781 449.226562 134.542969 452.558594 131.535156 C 457.691406 126.894531 461.839844 121.496094 464.703125 115.164062 C 465.976562 112.347656 467.152344 109.484375 468.335938 106.632812 C 472.171875 97.449219 476.199219 88.382812 481.566406 79.972656 C 486.265625 72.613281 491.867188 66.105469 499.550781 61.722656 C 508.160156 56.8125 517.117188 55.449219 526.433594 59.6875 C 531.746094 62.101562 536.050781 65.804688 539.640625 70.367188 C 544.402344 76.425781 547.355469 83.394531 549.90625 90.574219 C 551.449219 94.902344 552.96875 99.230469 554.894531 103.410156 C 557.476562 109.035156 561.523438 113.074219 567.328125 115.34375 C 570.875 116.730469 574.53125 117.289062 578.3125 117.3125 C 584.585938 117.335938 590.859375 117.367188 597.085938 118.296875 C 606.636719 119.714844 614.992188 123.550781 621.8125 130.507812 C 625.191406 133.953125 627.695312 138.035156 630.289062 142.039062 C 631.464844 143.847656 632.527344 145.738281 634.011719 147.316406 C 636.855469 150.324219 639.515625 149.832031 641.125 146.019531 C 642.199219 143.46875 642.445312 140.75 642.5 138.035156 C 642.566406 134.1875 642.511719 130.339844 642.523438 126.503906 C 642.535156 122.746094 642.859375 119.011719 643.796875 115.367188 C 644.4375 112.882812 645.429688 110.570312 647.109375 108.613281 C 650.160156 105.042969 654.488281 104.382812 658.46875 106.867188 C 660.160156 107.929688 661.535156 109.328125 662.707031 110.925781 C 666.542969 116.160156 668.300781 122.109375 668.625 128.515625 C 668.972656 135.5625 668.433594 142.574219 667.695312 149.5625 C 666.890625 157.257812 668.46875 164.257812 673.1875 170.488281 C 675.804688 173.929688 678.710938 177.097656 681.640625 180.273438 C 686.035156 185.011719 690.621094 189.621094 693.886719 195.28125 C 696.714844 200.175781 699.332031 205.175781 698.335938 211.171875 L 2.511719 211.171875 C 1.585938 211.09375 0.464844 211.484375 0.777344 209.707031 C 1.015625 208.339844 0.824219 206.898438 0.824219 205.488281 Z M 588.152344 146.21875 C 589.292969 148.019531 590.949219 149.226562 592.769531 150.222656 C 595.410156 151.664062 598.238281 152.671875 601.078125 153.613281 C 606.28125 155.332031 611.144531 157.636719 615.484375 161.027344 C 616.667969 161.953125 617.964844 162.714844 619.386719 163.230469 C 623.03125 164.539062 625.984375 162.121094 625.515625 158.21875 C 625.367188 157 625.089844 155.792969 624.394531 154.773438 C 619.429688 147.484375 613.761719 140.964844 605.316406 137.542969 C 602.699219 136.480469 599.960938 135.921875 597.152344 135.753906 C 594.773438 135.898438 592.46875 136.222656 590.367188 137.386719 C 586.878906 139.332031 586.015625 142.820312 588.152344 146.21875 Z M 503.082031 181.414062 C 505.710938 177.777344 506.515625 173.585938 506.5625 169.199219 C 506.628906 165.265625 505.667969 161.597656 503.753906 158.175781 C 503.351562 157.4375 502.902344 156.71875 502.378906 156.0625 C 497.15625 149.507812 489.449219 149.910156 485.390625 157.246094 C 480.984375 165.207031 481.535156 173.292969 486.34375 180.921875 C 488.277344 183.984375 491.050781 186.164062 495.132812 185.996094 C 498.65625 185.851562 501.136719 184.074219 503.070312 181.402344 Z M 456.574219 193.726562 C 458.050781 191.613281 458.808594 188.78125 458.796875 185.25 C 458.910156 183.132812 458.429688 180.964844 457.175781 179.007812 C 455.085938 175.742188 452.179688 175.496094 449.503906 178.238281 C 446.351562 181.457031 445.144531 189.273438 447.492188 193.277344 C 449.976562 197.503906 453.753906 197.773438 456.574219 193.726562 Z M 277.578125 150.289062 C 274.3125 147.40625 270.132812 147.496094 266.988281 150.515625 C 264.460938 152.929688 263.589844 156.003906 263.488281 159.28125 C 263.578125 162.949219 264.929688 165.933594 267.726562 168.160156 C 270.96875 170.742188 274.871094 170.507812 277.882812 167.667969 C 282.511719 163.296875 282.355469 154.507812 277.578125 150.300781 Z M 212.328125 126.714844 C 213.46875 128.683594 215.042969 128.851562 216.6875 127.285156 C 217.960938 126.066406 218.511719 124.46875 219.003906 122.859375 C 219.820312 120.164062 220.164062 117.378906 220.546875 114.605469 C 221.105469 110.601562 222.246094 106.765625 223.386719 102.910156 C 224.371094 99.597656 225.488281 96.308594 225.289062 92.777344 C 225.289062 91.9375 225.34375 91.085938 225.265625 90.261719 C 225.199219 89.511719 225.007812 88.738281 224.125 88.527344 C 223.363281 88.347656 222.871094 88.875 222.492188 89.398438 C 221.898438 90.238281 221.351562 91.109375 220.882812 92.015625 C 219.339844 95.023438 218.5 98.300781 217.527344 101.523438 C 216.398438 105.277344 215.167969 109.003906 213.722656 112.660156 C 212.695312 115.277344 211.980469 117.984375 211.464844 120.746094 C 211.074219 122.824219 211.230469 124.871094 212.316406 126.726562 Z M 197.261719 167.066406 C 197.398438 164.929688 196.683594 162.726562 195.285156 160.78125 C 193.003906 157.605469 189.613281 157.414062 186.953125 160.253906 C 183.316406 164.113281 183.375 171.648438 187.0625 175.429688 C 189.558594 177.992188 192.488281 177.902344 194.835938 175.207031 C 196.515625 173.28125 197.320312 170.675781 197.273438 167.066406 Z M 97.5 185.660156 C 97.378906 182.921875 96.863281 180.28125 95.351562 177.921875 C 92.902344 174.097656 88.878906 173.863281 86.09375 177.441406 C 82.929688 181.523438 81.957031 188.425781 84.742188 193.667969 C 84.996094 194.160156 85.332031 194.621094 85.691406 195.066406 C 88.398438 198.457031 92.03125 198.433594 94.613281 194.921875 C 96.628906 192.191406 97.378906 189.015625 97.5 185.660156 Z M 97.5 185.660156 " fill-opacity="1" fill-rule="nonzero"/></g></g></g></g></svg>