<svg xmlns="http://www.w3.org/2000/svg" xmlns:xlink="http://www.w3.org/1999/xlink" width="990" zoomAndPan="magnify" viewBox="0 0 743.04 277.91998" height="360" preserveAspectRatio="xMidYMid meet" version="1.0"><defs><clipPath id="73ec1a918f"><path d="M 22.484375 27.105469 L 720.582031 27.105469 L 720.582031 237 L 22.484375 237 Z M 22.484375 27.105469 " clip-rule="nonzero"/></clipPath></defs><g clip-path="url(#73ec1a918f)"><path fill="#000000" d="M 22.808594 33.117188 C 23.625 33.867188 23.757812 34.886719 24.003906 35.890625 C 25.378906 41.457031 27.089844 46.910156 30.175781 51.792969 C 33.75 57.460938 38.679688 61.082031 45.550781 61.929688 C 49.015625 62.355469 52.460938 62.390625 55.914062 62.398438 C 63.925781 62.445312 69.714844 65.921875 73.023438 73.308594 C 73.75 74.929688 74.566406 76.527344 75.15625 78.191406 C 77.257812 84.105469 79.316406 90.027344 81.328125 95.960938 C 82.871094 100.5 84.589844 104.949219 86.960938 109.117188 C 90.347656 115.0625 94.539062 120.304688 100.738281 123.554688 C 107.066406 126.875 113.335938 126.605469 119.449219 122.90625 C 124.722656 119.722656 128.535156 115.171875 131.472656 109.820312 C 134.546875 104.230469 137.09375 98.386719 139.65625 92.566406 C 142.316406 86.519531 146.292969 81.476562 151.1875 77.175781 C 154.53125 74.234375 158.488281 72.246094 162.777344 71.074219 C 169.105469 69.351562 174.78125 70.625 179.800781 74.941406 C 184.078125 78.617188 187.109375 83.1875 189.566406 88.183594 C 190.898438 90.867188 192.125 93.605469 193.523438 96.253906 C 195.792969 100.53125 199.355469 103.261719 204.027344 104.523438 C 205.738281 104.980469 207.492188 105.304688 209.226562 105.683594 C 211.917969 106.277344 214.390625 107.328125 216.511719 109.128906 C 220.300781 112.347656 223.027344 116.3125 224.828125 120.953125 C 227.441406 127.691406 228.996094 134.742188 230.839844 141.707031 C 233.308594 151.039062 235.902344 160.347656 240.742188 168.796875 C 246.074219 178.09375 253.113281 185.773438 262.984375 190.355469 C 272.101562 194.589844 280.808594 193.652344 288.855469 187.492188 C 293.570312 183.894531 296.980469 179.257812 299.71875 174.050781 C 303.976562 165.980469 307.050781 157.441406 310.054688 148.859375 C 311.699219 144.164062 313.429688 139.515625 315.855469 135.167969 C 318.484375 130.484375 321.386719 126.035156 325.882812 122.863281 C 329.914062 120.011719 334.339844 118.761719 339.167969 119.789062 C 344.589844 120.941406 349.050781 123.632812 351.945312 128.605469 C 354.828125 133.589844 356.9375 138.878906 358.402344 144.421875 C 361.03125 154.335938 361.554688 164.550781 362.191406 174.707031 C 362.730469 183.214844 362.671875 191.75 363.523438 200.234375 C 364.101562 206.011719 364.929688 211.757812 366.910156 217.265625 C 369.558594 224.644531 373.757812 230.789062 380.933594 234.464844 C 390.402344 239.316406 400.648438 236.667969 406.617188 227.863281 C 408.742188 224.730469 410.136719 221.257812 411.242188 217.65625 C 413.421875 210.570312 413.835938 203.308594 413.511719 195.964844 C 413.144531 187.707031 411.433594 179.636719 409.871094 171.546875 C 407.824219 160.949219 406.167969 150.320312 406.839844 139.46875 C 407.199219 133.570312 408.953125 128.046875 411.558594 122.828125 C 413.589844 118.726562 417.078125 116.660156 421.792969 116.695312 C 425.070312 116.714844 428.042969 117.722656 430.992188 118.941406 C 433.585938 120.011719 436.144531 121.164062 438.859375 121.914062 C 445.152344 123.644531 450.335938 121.980469 454.292969 116.792969 C 455.824219 114.792969 457.167969 112.636719 458.539062 110.511719 C 459.625 108.835938 460.945312 107.40625 462.597656 106.289062 C 466.296875 103.761719 470.933594 104.019531 474.265625 107.027344 C 479.394531 111.664062 483.542969 117.0625 486.402344 123.386719 C 487.675781 126.203125 488.851562 129.066406 490.035156 131.914062 C 493.867188 141.089844 497.890625 150.15625 503.257812 158.558594 C 507.949219 165.914062 513.550781 172.417969 521.226562 176.796875 C 529.832031 181.703125 538.785156 183.066406 548.09375 178.832031 C 553.402344 176.417969 557.707031 172.71875 561.292969 168.160156 C 566.054688 162.101562 569.003906 155.140625 571.554688 147.964844 C 573.09375 143.640625 574.613281 139.3125 576.539062 135.132812 C 579.117188 129.511719 583.164062 125.476562 588.964844 123.210938 C 592.507812 121.824219 596.164062 121.265625 599.941406 121.242188 C 606.210938 121.21875 612.480469 121.1875 618.703125 120.257812 C 628.25 118.839844 636.597656 115.007812 643.414062 108.054688 C 646.789062 104.613281 649.292969 100.53125 651.886719 96.53125 C 653.058594 94.722656 654.121094 92.832031 655.609375 91.257812 C 658.445312 88.25 661.105469 88.742188 662.714844 92.554688 C 663.789062 95.101562 664.035156 97.816406 664.089844 100.53125 C 664.15625 104.378906 664.101562 108.222656 664.113281 112.054688 C 664.125 115.8125 664.449219 119.542969 665.386719 123.1875 C 666.023438 125.667969 667.019531 127.980469 668.695312 129.9375 C 671.746094 133.503906 676.070312 134.160156 680.050781 131.679688 C 681.738281 130.617188 683.113281 129.222656 684.285156 127.625 C 688.117188 122.394531 689.875 116.449219 690.199219 110.042969 C 690.542969 103.003906 690.007812 95.996094 689.269531 89.011719 C 688.464844 81.320312 690.042969 74.324219 694.757812 68.101562 C 697.371094 64.65625 700.277344 61.496094 703.207031 58.320312 C 707.597656 53.582031 712.179688 48.976562 715.445312 43.324219 C 718.273438 38.425781 720.886719 33.433594 719.890625 27.441406 L 24.496094 27.441406 C 23.570312 27.519531 22.453125 27.128906 22.765625 28.90625 C 23 30.269531 22.808594 31.710938 22.808594 33.117188 Z M 609.773438 92.351562 C 610.914062 90.554688 612.570312 89.347656 614.390625 88.351562 C 617.027344 86.910156 619.855469 85.902344 622.695312 84.964844 C 627.890625 83.242188 632.753906 80.941406 637.089844 77.554688 C 638.273438 76.628906 639.570312 75.867188 640.988281 75.351562 C 644.632812 74.046875 647.582031 76.460938 647.113281 80.359375 C 646.96875 81.578125 646.6875 82.785156 645.996094 83.800781 C 641.035156 91.089844 635.367188 97.605469 626.929688 101.023438 C 624.316406 102.085938 621.578125 102.644531 618.773438 102.8125 C 616.390625 102.667969 614.089844 102.34375 611.988281 101.179688 C 608.5 99.238281 607.640625 95.75 609.773438 92.351562 Z M 524.757812 57.179688 C 527.386719 60.8125 528.191406 65.003906 528.234375 69.386719 C 528.300781 73.320312 527.339844 76.984375 525.429688 80.40625 C 525.027344 81.140625 524.578125 81.859375 524.054688 82.515625 C 518.835938 89.066406 511.136719 88.664062 507.078125 81.332031 C 502.675781 73.375 503.222656 65.296875 508.027344 57.671875 C 509.960938 54.609375 512.734375 52.429688 516.8125 52.597656 C 520.332031 52.746094 522.8125 54.519531 524.746094 57.191406 Z M 478.277344 44.875 C 479.753906 46.988281 480.511719 49.816406 480.5 53.347656 C 480.613281 55.460938 480.132812 57.628906 478.882812 59.582031 C 476.792969 62.847656 473.886719 63.09375 471.214844 60.355469 C 468.0625 57.136719 466.855469 49.324219 469.203125 45.324219 C 471.683594 41.097656 475.460938 40.832031 478.277344 44.875 Z M 299.394531 88.285156 C 296.128906 91.167969 291.949219 91.078125 288.808594 88.058594 C 286.285156 85.648438 285.414062 82.574219 285.3125 79.296875 C 285.402344 75.632812 286.753906 72.648438 289.546875 70.425781 C 292.789062 67.84375 296.6875 68.078125 299.695312 70.917969 C 304.324219 75.285156 304.167969 84.070312 299.394531 88.273438 Z M 234.183594 111.84375 C 235.320312 109.875 236.898438 109.707031 238.539062 111.273438 C 239.816406 112.492188 240.363281 114.089844 240.855469 115.699219 C 241.667969 118.390625 242.015625 121.175781 242.394531 123.945312 C 242.953125 127.949219 244.09375 131.78125 245.234375 135.636719 C 246.21875 138.945312 247.335938 142.230469 247.136719 145.761719 C 247.136719 146.601562 247.191406 147.449219 247.113281 148.277344 C 247.046875 149.027344 246.855469 149.796875 245.972656 150.007812 C 245.210938 150.1875 244.722656 149.664062 244.339844 149.136719 C 243.75 148.300781 243.199219 147.425781 242.730469 146.523438 C 241.1875 143.515625 240.351562 140.242188 239.378906 137.023438 C 238.25 133.269531 237.019531 129.546875 235.578125 125.890625 C 234.550781 123.277344 233.835938 120.570312 233.320312 117.8125 C 232.929688 115.730469 233.085938 113.6875 234.171875 111.832031 Z M 219.128906 71.519531 C 219.261719 73.65625 218.546875 75.855469 217.148438 77.800781 C 214.871094 80.976562 211.484375 81.164062 208.824219 78.328125 C 205.191406 74.46875 205.246094 66.9375 208.933594 63.160156 C 211.425781 60.601562 214.355469 60.691406 216.703125 63.382812 C 218.378906 65.304688 219.183594 67.910156 219.140625 71.519531 Z M 119.425781 52.933594 C 119.304688 55.671875 118.789062 58.308594 117.28125 60.667969 C 114.832031 64.492188 110.808594 64.726562 108.027344 61.148438 C 104.863281 57.070312 103.890625 50.171875 106.675781 44.933594 C 106.929688 44.441406 107.265625 43.980469 107.625 43.535156 C 110.328125 40.148438 113.960938 40.171875 116.542969 43.679688 C 118.554688 46.40625 119.304688 49.582031 119.425781 52.933594 Z M 119.425781 52.933594 " fill-opacity="1" fill-rule="nonzero"/></g></svg>