<svg xmlns="http://www.w3.org/2000/svg" xmlns:xlink="http://www.w3.org/1999/xlink" width="990" zoomAndPan="magnify" viewBox="0 0 743.04 277.91998" height="360" preserveAspectRatio="xMidYMid meet" version="1.0"><defs><clipPath id="ede26019f9"><path d="M 0 4.152344 L 263 4.152344 L 263 263 L 0 263 Z M 0 4.152344 " clip-rule="nonzero"/></clipPath><clipPath id="c43b1a3695"><path d="M 22 5 L 262.699219 5 L 262.699219 258.839844 L 22 258.839844 Z M 22 5 " clip-rule="nonzero"/></clipPath><clipPath id="af5c00c232"><path d="M 1 0.214844 L 32 0.214844 L 32 49 L 1 49 Z M 1 0.214844 " clip-rule="nonzero"/></clipPath><clipPath id="606ab2cffa"><rect x="0" width="263" y="0" height="259"/></clipPath></defs><g clip-path="url(#ede26019f9)"><g transform="matrix(1, 0, 0, 1, 0, 4)"><g clip-path="url(#606ab2cffa)"><g clip-path="url(#c43b1a3695)"><path fill="#000000" d="M 79.539062 38.296875 C 80.582031 39.421875 81.574219 40.617188 82.472656 41.597656 C 92.316406 52.554688 96.351562 68.566406 92.5625 82.839844 C 87.007812 103.710938 67.058594 118.324219 61.246094 139.113281 C 56.859375 154.785156 61.382812 172.003906 70.371094 185.570312 C 79.363281 199.136719 92.414062 209.527344 106.058594 218.394531 C 134.78125 237.054688 167.183594 250.035156 200.847656 256.378906 C 213.179688 258.699219 226.121094 260.097656 238.113281 256.433594 C 250.105469 252.753906 260.953125 242.894531 262.324219 230.414062 C 263.507812 219.683594 257.558594 209.199219 249.535156 201.976562 C 235.371094 189.210938 216.832031 185.410156 198.691406 182.21875 C 194.4375 181.46875 190 180.640625 186.589844 177.992188 C 183.179688 175.347656 181.238281 170.265625 183.492188 166.585938 C 184.972656 164.167969 187.785156 162.972656 190.1875 161.453125 C 192.59375 159.933594 194.914062 157.421875 194.382812 154.621094 C 193.828125 151.6875 190.257812 150.183594 187.308594 150.699219 C 184.363281 151.214844 181.890625 153.128906 179.40625 154.800781 C 167.917969 162.566406 153.726562 166.152344 139.929688 165.09375 C 132.773438 164.535156 126.808594 163.328125 121.5 158.328125 C 116.652344 153.753906 112.90625 147.847656 111.84375 141.179688 C 109.917969 129.039062 116.882812 117.316406 124.625 107.757812 C 132.363281 98.199219 141.410156 89.058594 144.914062 77.269531 C 149.449219 62.007812 145.496094 44.503906 136.65625 31.492188 C 135.339844 29.550781 133.816406 27.621094 131.710938 26.605469 C 129.609375 25.585938 126.742188 25.761719 125.261719 27.582031 C 123.007812 30.367188 125.179688 34.464844 124.828125 38.023438 C 124.570312 40.714844 122.65625 43.171875 120.117188 44.082031 C 114.34375 46.171875 109.210938 41.390625 105.597656 37.710938 C 99.390625 31.410156 93.242188 25.367188 86.082031 20.015625 C 79.210938 14.882812 71.824219 10.238281 63.648438 7.644531 C 55.472656 5.050781 46.390625 4.632812 38.417969 7.808594 C 30.445312 10.988281 23.832031 18.089844 22.488281 26.5625 C 21.742188 31.289062 23.289062 37.046875 27.785156 38.675781 C 31.601562 40.046875 35.675781 37.902344 39.382812 36.257812 C 47.070312 32.878906 55.636719 31.601562 63.988281 32.441406 C 67.710938 32.824219 72.734375 33.324219 76.019531 35.269531 C 77.242188 35.988281 78.425781 37.101562 79.539062 38.296875 Z M 79.539062 38.296875 " fill-opacity="1" fill-rule="nonzero"/></g><path fill="#000000" d="M 126.523438 134.835938 C 126.335938 139.574219 126.890625 144.613281 129.730469 148.402344 C 132.609375 152.261719 137.445312 154.257812 142.222656 154.703125 C 147.003906 155.152344 151.8125 154.230469 156.511719 153.238281 C 158.980469 152.707031 161.5625 152.109375 163.515625 150.480469 C 165.460938 148.851562 166.53125 145.890625 165.226562 143.71875 C 163.4375 140.742188 158.941406 141.207031 156.007812 139.332031 C 145.523438 132.636719 161.929688 115.089844 146.460938 110.675781 C 132.472656 106.671875 126.945312 124.257812 126.523438 134.835938 Z M 126.523438 134.835938 " fill-opacity="1" fill-rule="nonzero"/><path fill="#000000" d="M 73.085938 42.65625 C 81.414062 47.816406 86.601562 57.335938 87.429688 67.097656 C 88.257812 76.863281 85.011719 86.734375 79.390625 94.761719 C 77.3125 97.734375 74.8125 100.5625 71.582031 102.203125 C 68.347656 103.847656 64.234375 104.144531 61.164062 102.191406 C 56.179688 99.027344 55.992188 91.636719 58.164062 86.136719 C 60.335938 80.636719 64.21875 75.859375 65.6875 70.128906 C 67.207031 64.179688 65.851562 57.566406 62.089844 52.71875 C 59.792969 49.757812 46.703125 44.707031 50.367188 40.359375 C 54.671875 35.269531 68.753906 39.980469 73.085938 42.65625 Z M 73.085938 42.65625 " fill-opacity="1" fill-rule="nonzero"/><path fill="#000000" d="M 206.144531 144.640625 C 206.835938 145.835938 206.703125 147.507812 205.667969 148.417969 C 205.125 148.90625 204.394531 149.148438 203.660156 149.21875 C 202.234375 149.367188 200.714844 148.90625 199.75 147.847656 C 198.785156 146.785156 198.472656 145.128906 199.136719 143.867188 C 200.550781 141.246094 204.894531 142.480469 206.144531 144.640625 Z M 206.144531 144.640625 " fill-opacity="1" fill-rule="nonzero"/><path fill="#000000" d="M 130.734375 18.386719 C 130.761719 19.8125 130 21.226562 128.808594 22 C 127.910156 22.582031 126.824219 22.800781 125.765625 22.773438 C 124.636719 22.761719 123.457031 22.449219 122.683594 21.632812 C 121.800781 20.710938 121.609375 19.242188 122.070312 18.046875 C 122.53125 16.851562 123.578125 15.941406 124.761719 15.46875 C 125.804688 15.046875 127.789062 14.613281 128.902344 15.019531 C 130.054688 15.453125 130.707031 17.289062 130.734375 18.386719 Z M 130.734375 18.386719 " fill-opacity="1" fill-rule="nonzero"/><g clip-path="url(#af5c00c232)"><path fill="#000000" d="M 15.140625 30.800781 C 15.265625 34.589844 16.09375 38.460938 15.183594 42.140625 C 14.257812 45.820312 10.675781 49.269531 7.019531 48.265625 C 3.898438 47.410156 2.375 43.90625 1.726562 40.726562 C 0 32.28125 1.617188 23.207031 6.152344 15.875 C 10.6875 8.542969 18.089844 3.042969 26.414062 0.816406 C 27.796875 0.449219 29.375 0.191406 30.582031 0.976562 C 33.976562 3.207031 28.925781 4.792969 27.664062 5.636719 C 25.015625 7.375 22.734375 9.898438 20.898438 12.453125 C 17.082031 17.75 14.9375 24.269531 15.140625 30.800781 Z M 15.140625 30.800781 " fill-opacity="1" fill-rule="nonzero"/></g><path fill="#ffffff" d="M 249.777344 218.695312 L 249.96875 219.371094 C 250.023438 219.601562 250.105469 219.820312 250.128906 220.050781 C 250.210938 220.511719 250.320312 220.976562 250.363281 221.4375 L 250.441406 222.128906 L 250.484375 222.820312 C 250.523438 223.285156 250.496094 223.757812 250.496094 224.21875 C 250.441406 226.082031 250.0625 227.914062 249.464844 229.667969 L 249.355469 229.992188 C 249.316406 230.101562 249.273438 230.210938 249.234375 230.316406 L 248.976562 230.957031 L 248.910156 231.117188 L 248.839844 231.28125 L 248.691406 231.59375 C 248.597656 231.796875 248.5 232.015625 248.394531 232.21875 C 247.972656 233.035156 247.511719 233.847656 246.980469 234.59375 C 245.933594 236.101562 244.710938 237.5 243.328125 238.710938 C 242.972656 239.007812 242.632812 239.320312 242.269531 239.59375 C 242.089844 239.730469 241.902344 239.878906 241.726562 240.015625 L 241.167969 240.40625 C 240.800781 240.679688 240.40625 240.925781 240.027344 241.183594 C 239.835938 241.316406 239.632812 241.425781 239.441406 241.546875 C 239.238281 241.671875 239.050781 241.792969 238.847656 241.902344 C 237.242188 242.8125 235.546875 243.558594 233.808594 244.183594 C 233.375 244.347656 232.925781 244.46875 232.492188 244.617188 L 231.824219 244.820312 C 231.609375 244.890625 231.375 244.957031 231.160156 245.011719 C 230.710938 245.132812 230.261719 245.257812 229.816406 245.351562 L 229.136719 245.5 C 228.90625 245.554688 228.6875 245.609375 228.457031 245.648438 C 226.636719 246.015625 224.804688 246.261719 222.957031 246.398438 C 221.109375 246.546875 219.25 246.601562 217.390625 246.558594 C 215.527344 246.519531 213.667969 246.382812 211.820312 246.207031 C 209.960938 246.03125 208.113281 245.785156 206.265625 245.488281 C 205.34375 245.335938 204.421875 245.175781 203.496094 245.011719 C 203.035156 244.929688 202.574219 244.847656 202.113281 244.753906 C 201.648438 244.671875 201.1875 244.578125 200.726562 244.480469 C 193.378906 243 186.101562 241.03125 178.6875 239.675781 C 185.964844 241.589844 193.136719 243.828125 200.496094 245.515625 C 204.175781 246.371094 207.898438 247.046875 211.660156 247.484375 C 213.546875 247.699219 215.433594 247.835938 217.335938 247.875 C 219.234375 247.917969 221.136719 247.875 223.039062 247.742188 C 224.941406 247.578125 226.828125 247.332031 228.703125 246.941406 C 230.5625 246.546875 232.421875 246.070312 234.214844 245.390625 C 236.007812 244.726562 237.746094 243.910156 239.402344 242.933594 C 241.058594 241.957031 242.609375 240.816406 244.019531 239.496094 C 244.195312 239.335938 244.371094 239.171875 244.535156 238.996094 L 245.039062 238.480469 L 245.527344 237.949219 C 245.691406 237.773438 245.851562 237.597656 246.003906 237.40625 C 246.300781 237.027344 246.613281 236.671875 246.898438 236.28125 L 247.320312 235.695312 L 247.714844 235.085938 C 248.230469 234.285156 248.679688 233.425781 249.085938 232.558594 C 249.179688 232.339844 249.273438 232.109375 249.371094 231.894531 L 249.507812 231.566406 L 249.574219 231.402344 L 249.628906 231.242188 L 249.859375 230.5625 C 249.898438 230.453125 249.941406 230.332031 249.96875 230.222656 L 250.0625 229.882812 L 250.253906 229.191406 C 250.308594 228.960938 250.363281 228.730469 250.402344 228.5 L 250.484375 228.144531 L 250.523438 227.96875 L 250.550781 227.792969 L 250.660156 227.085938 C 250.675781 226.964844 250.703125 226.855469 250.714844 226.734375 L 250.742188 226.378906 L 250.808594 225.671875 C 250.824219 225.441406 250.824219 225.199219 250.835938 224.953125 L 250.851562 224.601562 L 250.851562 224.425781 L 250.835938 224.246094 C 250.808594 223.773438 250.808594 223.296875 250.742188 222.820312 L 250.660156 222.117188 C 250.621094 221.882812 250.578125 221.652344 250.539062 221.421875 C 250.46875 220.960938 250.320312 220.5 250.199219 220.050781 C 250.144531 219.820312 250.0625 219.601562 249.980469 219.371094 Z M 249.777344 218.695312 " fill-opacity="1" fill-rule="nonzero"/><path fill="#ffffff" d="M 151.363281 229.433594 C 148.742188 227.847656 146.066406 226.394531 143.378906 224.96875 C 140.6875 223.542969 137.960938 222.167969 135.230469 220.839844 C 132.488281 219.507812 129.730469 218.21875 126.945312 216.96875 C 124.164062 215.734375 121.363281 214.539062 118.5 213.453125 C 121.121094 215.039062 123.796875 216.507812 126.484375 217.917969 C 129.171875 219.34375 131.902344 220.71875 134.632812 222.046875 C 137.375 223.378906 140.132812 224.667969 142.917969 225.90625 C 145.699219 227.167969 148.496094 228.363281 151.363281 229.433594 Z M 151.363281 229.433594 " fill-opacity="1" fill-rule="nonzero"/><path fill="#ffffff" d="M 89.75 112.320312 C 86.179688 115.375 83.042969 118.976562 80.378906 122.886719 C 77.703125 126.796875 75.503906 131.035156 73.820312 135.460938 C 72.136719 139.886719 70.957031 144.519531 70.359375 149.21875 C 69.746094 153.917969 69.707031 158.683594 70.34375 163.339844 C 70.277344 158.640625 70.617188 153.972656 71.402344 149.378906 C 72.207031 144.789062 73.425781 140.296875 75.085938 135.949219 C 76.726562 131.605469 78.804688 127.421875 81.261719 123.46875 C 83.722656 119.503906 86.574219 115.785156 89.75 112.320312 Z M 89.75 112.320312 " fill-opacity="1" fill-rule="nonzero"/><path fill="#ffffff" d="M 84.96875 36.042969 C 82.867188 33.816406 80.324219 31.953125 77.597656 30.488281 C 74.851562 29.019531 71.90625 27.960938 68.851562 27.308594 C 65.808594 26.65625 62.671875 26.425781 59.574219 26.644531 C 56.480469 26.863281 53.410156 27.527344 50.570312 28.707031 C 53.574219 28.070312 56.589844 27.71875 59.617188 27.71875 C 62.632812 27.703125 65.632812 28.015625 68.566406 28.640625 C 71.5 29.265625 74.378906 30.203125 77.121094 31.453125 C 79.878906 32.6875 82.484375 34.234375 84.96875 36.042969 Z M 84.96875 36.042969 " fill-opacity="1" fill-rule="nonzero"/><path fill="#ffffff" d="M 138.816406 48.238281 C 139.601562 51.15625 140.132812 54.101562 140.335938 57.078125 C 140.554688 60.039062 140.484375 63.011719 140.105469 65.957031 C 139.738281 68.890625 139.074219 71.796875 138.121094 74.609375 C 137.171875 77.433594 135.9375 80.148438 134.457031 82.796875 C 136.410156 80.476562 137.960938 77.8125 139.128906 74.988281 C 140.296875 72.164062 141.082031 69.164062 141.464844 66.136719 C 141.84375 63.09375 141.828125 59.996094 141.410156 56.96875 C 140.960938 53.941406 140.117188 50.964844 138.816406 48.238281 Z M 138.816406 48.238281 " fill-opacity="1" fill-rule="nonzero"/><path fill="#ffffff" d="M 117.753906 162.621094 C 121.160156 165.335938 125.070312 167.457031 129.199219 168.964844 C 133.328125 170.484375 137.6875 171.378906 142.089844 171.679688 C 146.488281 171.976562 150.929688 171.652344 155.21875 170.703125 C 159.511719 169.75 163.667969 168.175781 167.402344 165.933594 C 163.410156 167.671875 159.253906 168.9375 155.015625 169.667969 C 150.777344 170.402344 146.460938 170.621094 142.183594 170.335938 C 137.90625 170.050781 133.65625 169.261719 129.554688 167.972656 C 125.425781 166.683594 121.472656 164.875 117.753906 162.621094 Z M 117.753906 162.621094 " fill-opacity="1" fill-rule="nonzero"/><path fill="#ffffff" d="M 143.066406 114.671875 C 141.125 115.347656 139.359375 116.585938 137.90625 118.066406 C 136.4375 119.558594 135.257812 121.324219 134.347656 123.210938 C 133.4375 125.101562 132.8125 127.097656 132.390625 129.105469 C 131.972656 131.128906 131.738281 133.167969 131.710938 135.21875 C 132.296875 133.246094 132.8125 131.292969 133.425781 129.363281 C 134.019531 127.449219 134.714844 125.574219 135.570312 123.78125 C 136.425781 122.003906 137.457031 120.304688 138.691406 118.757812 C 139.929688 117.222656 141.382812 115.839844 143.066406 114.671875 Z M 143.066406 114.671875 " fill-opacity="1" fill-rule="nonzero"/></g></g></g></svg>