<svg xmlns="http://www.w3.org/2000/svg" xmlns:xlink="http://www.w3.org/1999/xlink" width="990" zoomAndPan="magnify" viewBox="0 0 742.5 269.999989" height="360" preserveAspectRatio="xMidYMid meet" version="1.0"><defs><clipPath id="b38a52828e"><path d="M 22 23 L 491 23 L 491 269.90625 L 22 269.90625 Z M 22 23 " clip-rule="nonzero"/></clipPath><clipPath id="ec54b20c8f"><path d="M 63.910156 -24.023438 L 495.351562 45.183594 L 445.375 356.738281 L 13.933594 287.53125 Z M 63.910156 -24.023438 " clip-rule="nonzero"/></clipPath><clipPath id="d0fe6c9881"><path d="M 63.910156 -24.023438 L 495.351562 45.183594 L 445.375 356.738281 L 13.933594 287.53125 Z M 63.910156 -24.023438 " clip-rule="nonzero"/></clipPath><clipPath id="e6880b0eba"><path d="M 78 198 L 186 198 L 186 269.90625 L 78 269.90625 Z M 78 198 " clip-rule="nonzero"/></clipPath><clipPath id="68ecffeb95"><path d="M 63.910156 -24.023438 L 495.351562 45.183594 L 445.375 356.738281 L 13.933594 287.53125 Z M 63.910156 -24.023438 " clip-rule="nonzero"/></clipPath><clipPath id="e1b7c876c4"><path d="M 63.910156 -24.023438 L 495.351562 45.183594 L 445.375 356.738281 L 13.933594 287.53125 Z M 63.910156 -24.023438 " clip-rule="nonzero"/></clipPath><clipPath id="d770141c45"><path d="M 276 161 L 318 161 L 318 190 L 276 190 Z M 276 161 " clip-rule="nonzero"/></clipPath><clipPath id="244b0c2d0b"><path d="M 63.910156 -24.023438 L 495.351562 45.183594 L 445.375 356.738281 L 13.933594 287.53125 Z M 63.910156 -24.023438 " clip-rule="nonzero"/></clipPath><clipPath id="e3ff978f2e"><path d="M 63.910156 -24.023438 L 495.351562 45.183594 L 445.375 356.738281 L 13.933594 287.53125 Z M 63.910156 -24.023438 " clip-rule="nonzero"/></clipPath><clipPath id="b941c6c5ae"><path d="M 245 74 L 332 74 L 332 141 L 245 141 Z M 245 74 " clip-rule="nonzero"/></clipPath><clipPath id="2b053cac8a"><path d="M 63.910156 -24.023438 L 495.351562 45.183594 L 445.375 356.738281 L 13.933594 287.53125 Z M 63.910156 -24.023438 " clip-rule="nonzero"/></clipPath><clipPath id="b2811022ac"><path d="M 63.910156 -24.023438 L 495.351562 45.183594 L 445.375 356.738281 L 13.933594 287.53125 Z M 63.910156 -24.023438 " clip-rule="nonzero"/></clipPath><clipPath id="5b07552739"><path d="M 247 251 L 298 251 L 298 269.90625 L 247 269.90625 Z M 247 251 " clip-rule="nonzero"/></clipPath><clipPath id="5fbb6d39bd"><path d="M 63.910156 -24.023438 L 495.351562 45.183594 L 445.375 356.738281 L 13.933594 287.53125 Z M 63.910156 -24.023438 " clip-rule="nonzero"/></clipPath><clipPath id="900d638efa"><path d="M 63.910156 -24.023438 L 495.351562 45.183594 L 445.375 356.738281 L 13.933594 287.53125 Z M 63.910156 -24.023438 " clip-rule="nonzero"/></clipPath><clipPath id="21da61e773"><path d="M 381 56 L 455 56 L 455 81 L 381 81 Z M 381 56 " clip-rule="nonzero"/></clipPath><clipPath id="39858e8f0a"><path d="M 63.910156 -24.023438 L 495.351562 45.183594 L 445.375 356.738281 L 13.933594 287.53125 Z M 63.910156 -24.023438 " clip-rule="nonzero"/></clipPath><clipPath id="9dcc289b62"><path d="M 63.910156 -24.023438 L 495.351562 45.183594 L 445.375 356.738281 L 13.933594 287.53125 Z M 63.910156 -24.023438 " clip-rule="nonzero"/></clipPath><clipPath id="f6556e939b"><path d="M 123 73 L 460 73 L 460 269.90625 L 123 269.90625 Z M 123 73 " clip-rule="nonzero"/></clipPath><clipPath id="bcee562271"><path d="M 63.910156 -24.023438 L 495.351562 45.183594 L 445.375 356.738281 L 13.933594 287.53125 Z M 63.910156 -24.023438 " clip-rule="nonzero"/></clipPath><clipPath id="085f37d401"><path d="M 63.910156 -24.023438 L 495.351562 45.183594 L 445.375 356.738281 L 13.933594 287.53125 Z M 63.910156 -24.023438 " clip-rule="nonzero"/></clipPath><clipPath id="cd51303d57"><path d="M 317 157 L 328 157 L 328 167 L 317 167 Z M 317 157 " clip-rule="nonzero"/></clipPath><clipPath id="4dd7d6c126"><path d="M 63.910156 -24.023438 L 495.351562 45.183594 L 445.375 356.738281 L 13.933594 287.53125 Z M 63.910156 -24.023438 " clip-rule="nonzero"/></clipPath><clipPath id="746acaed54"><path d="M 63.910156 -24.023438 L 495.351562 45.183594 L 445.375 356.738281 L 13.933594 287.53125 Z M 63.910156 -24.023438 " clip-rule="nonzero"/></clipPath><clipPath id="1da79aa68d"><path d="M 276 179 L 330 179 L 330 207 L 276 207 Z M 276 179 " clip-rule="nonzero"/></clipPath><clipPath id="44d27cffc0"><path d="M 63.910156 -24.023438 L 495.351562 45.183594 L 445.375 356.738281 L 13.933594 287.53125 Z M 63.910156 -24.023438 " clip-rule="nonzero"/></clipPath><clipPath id="9984717903"><path d="M 63.910156 -24.023438 L 495.351562 45.183594 L 445.375 356.738281 L 13.933594 287.53125 Z M 63.910156 -24.023438 " clip-rule="nonzero"/></clipPath></defs><g clip-path="url(#b38a52828e)"><g clip-path="url(#ec54b20c8f)"><g clip-path="url(#d0fe6c9881)"><path fill="#000000" d="M 67.832031 296.03125 C 51.964844 293.484375 38.144531 283.648438 30.789062 269.359375 C 18.066406 244.640625 11.109375 207.53125 74.132812 196.046875 C 171.425781 178.316406 331.679688 183.746094 180.308594 103.902344 C 126.800781 75.679688 242.398438 44.136719 382.34375 61.863281 C 417.574219 66.324219 430.324219 46.777344 364.121094 31.714844 C 353.445312 29.285156 348.644531 22.566406 362.859375 24.011719 C 375.304688 25.277344 493.71875 48.367188 490.308594 78.070312 C 488.210938 96.34375 456.195312 94.949219 387.207031 97.367188 C 333.195312 99.257812 280.105469 121.921875 372.898438 151.929688 C 447.902344 176.183594 466.027344 222.519531 404.769531 226.859375 C 351.460938 230.640625 299.984375 228.941406 311 260.710938 C 318.03125 280.988281 361.65625 312.96875 392.304688 333.453125 C 399.050781 337.960938 394.890625 348.492188 386.878906 347.207031 Z M 67.832031 296.03125 " fill-opacity="1" fill-rule="nonzero"/></g></g></g><g clip-path="url(#e6880b0eba)"><g clip-path="url(#68ecffeb95)"><g clip-path="url(#e1b7c876c4)"><path fill="#ffffff" d="M 131.300781 298.46875 C 124.726562 292.136719 117.4375 284.210938 111.433594 275.148438 C 108.359375 270.632812 105.855469 265.800781 104.066406 260.964844 C 102.292969 256.125 101.40625 251.3125 101.8125 246.910156 C 103.277344 231.101562 121.214844 222.195312 134.457031 217.710938 C 149.667969 212.566406 165.421875 209.691406 181.265625 207.265625 C 183.421875 206.933594 185.050781 205.058594 185.007812 202.828125 C 184.804688 192.546875 137.289062 201.691406 130.238281 203.082031 C 108.671875 207.335938 85.199219 219.523438 79.554688 242.542969 C 77.429688 251.210938 78.015625 259.910156 79.679688 267.601562 C 81.378906 275.332031 84.042969 282.386719 87.148438 288.652344 C 88.601562 291.632812 90.128906 294.433594 91.695312 297.132812 C 92.804688 299.054688 94.742188 300.347656 96.929688 300.699219 L 141.953125 307.917969 C 138.769531 305.304688 135.175781 302.179688 131.300781 298.46875 Z M 131.300781 298.46875 " fill-opacity="1" fill-rule="nonzero"/></g></g></g><g clip-path="url(#d770141c45)"><g clip-path="url(#244b0c2d0b)"><g clip-path="url(#e3ff978f2e)"><path fill="#ffffff" d="M 281.851562 189.097656 C 293.84375 189.949219 308.804688 188.910156 316.046875 177.832031 C 319.34375 171.558594 315.921875 165.6875 311.035156 161.511719 C 310.34375 160.921875 309.308594 160.894531 308.613281 161.496094 C 307.847656 162.160156 307.761719 163.324219 308.425781 164.089844 C 313.550781 170.015625 312.777344 175.109375 305.183594 178.566406 C 299.480469 181.164062 293.191406 180.15625 287.253906 179.230469 C 283.214844 178.601562 277.320312 177.691406 276.914062 183.410156 C 276.707031 186.34375 278.914062 188.890625 281.851562 189.097656 Z M 281.851562 189.097656 " fill-opacity="1" fill-rule="nonzero"/></g></g></g><g clip-path="url(#b941c6c5ae)"><g clip-path="url(#2b053cac8a)"><g clip-path="url(#b2811022ac)"><path fill="#ffffff" d="M 298.894531 138.761719 C 300.1875 140.949219 303.046875 140.074219 302.949219 137.652344 C 302.042969 115.652344 262.441406 99.03125 262.066406 94.703125 C 261.164062 84.1875 279.804688 82.890625 287.792969 81.820312 C 299.578125 80.242188 329.546875 80.335938 329.546875 80.335938 C 330.839844 80.328125 331.917969 79.292969 331.945312 77.992188 C 331.976562 76.667969 330.929688 75.570312 329.605469 75.539062 C 324.027344 75.40625 223.542969 68.644531 249.878906 102.5625 C 254.5625 108.59375 284.90625 115.125 298.894531 138.761719 Z M 298.894531 138.761719 " fill-opacity="1" fill-rule="nonzero"/></g></g></g><g clip-path="url(#5b07552739)"><g clip-path="url(#5fbb6d39bd)"><g clip-path="url(#900d638efa)"><path fill="#ffffff" d="M 269.140625 298.59375 C 262.996094 289.789062 250.230469 270.507812 262.285156 261.332031 C 263.34375 260.527344 264.816406 259.886719 266.085938 259.117188 C 271.417969 255.878906 267.464844 249.78125 261.945312 251.441406 C 252.855469 254.175781 247.535156 263.355469 247.734375 272.484375 C 248.066406 287.722656 257.535156 303.074219 265.699219 315.394531 C 268.878906 320.1875 272.339844 324.832031 275.894531 329.40625 L 297.597656 332.886719 C 287.386719 322.085938 277.621094 310.746094 269.140625 298.59375 Z M 269.140625 298.59375 " fill-opacity="1" fill-rule="nonzero"/></g></g></g><g clip-path="url(#21da61e773)"><g clip-path="url(#39858e8f0a)"><g clip-path="url(#9dcc289b62)"><path fill="#ffffff" d="M 404.074219 80.097656 C 412.945312 79.996094 421.8125 79.425781 430.636719 78.503906 C 437.242188 77.816406 449.488281 76.988281 453.324219 70.667969 C 457.828125 63.035156 440.398438 57.351562 435.386719 56.203125 C 439.070312 57.046875 454.027344 64.941406 445.84375 69.738281 C 439.773438 73.300781 431.066406 74.226562 424.472656 74.929688 C 413.949219 76.050781 403.378906 77.167969 392.78125 76.832031 C 390.132812 76.75 383.664062 75.367188 381.914062 78.144531 C 381.300781 79.113281 390.222656 79.859375 390.769531 79.882812 C 395.203125 80.082031 399.640625 80.148438 404.074219 80.097656 Z M 404.074219 80.097656 " fill-opacity="1" fill-rule="nonzero"/></g></g></g><g clip-path="url(#f6556e939b)"><g clip-path="url(#bcee562271)"><g clip-path="url(#085f37d401)"><path fill="#ffffff" d="M 190.632812 223.667969 C 190.523438 218.183594 165.15625 223.0625 161.394531 223.804688 C 143.976562 227.238281 119.785156 235.960938 124.042969 254.882812 C 126.214844 264.535156 166.078125 320.300781 177.984375 297.4375 C 183.269531 287.289062 170.066406 282.273438 164.179688 277.019531 C 156.6875 270.328125 142.6875 255.421875 143.695312 244.539062 C 144.476562 236.097656 156.574219 234.007812 163.648438 231.617188 C 171.765625 228.871094 180.175781 227.335938 188.636719 226.039062 C 189.785156 225.863281 190.65625 224.859375 190.632812 223.667969 Z M 454.460938 75.589844 C 452.882812 76.476562 451.417969 77.445312 450.789062 77.699219 C 447.058594 79.199219 443.042969 79.875 439.097656 80.546875 C 431.421875 81.855469 423.714844 83.160156 415.914062 83.398438 C 413.96875 83.460938 409.15625 82.742188 407.996094 84.859375 C 407.59375 85.597656 414.175781 85.738281 414.582031 85.730469 C 417.84375 85.671875 421.105469 85.519531 424.359375 85.277344 C 430.867188 84.796875 437.351562 83.972656 443.785156 82.890625 C 448.203125 82.148438 453.496094 81.667969 457.261719 79.007812 C 458.269531 78.292969 460.492188 76.164062 459.878906 74.664062 C 459.277344 73.195312 456.746094 74.308594 454.460938 75.589844 Z M 454.460938 75.589844 " fill-opacity="1" fill-rule="nonzero"/></g></g></g><g clip-path="url(#cd51303d57)"><g clip-path="url(#4dd7d6c126)"><g clip-path="url(#746acaed54)"><path fill="#ffffff" d="M 319.386719 157.632812 C 318.390625 157.394531 317.441406 158.8125 318.171875 159.601562 C 319.183594 160.6875 320.125 161.839844 321.144531 162.921875 C 322.222656 164.070312 323.023438 165.539062 324.308594 166.464844 C 325.738281 167.496094 327.777344 166.5 327.625 164.667969 C 327.28125 160.597656 322.824219 158.464844 319.386719 157.632812 Z M 319.386719 157.632812 " fill-opacity="1" fill-rule="nonzero"/></g></g></g><g clip-path="url(#1da79aa68d)"><g clip-path="url(#44d27cffc0)"><g clip-path="url(#9984717903)"><path fill="#ffffff" d="M 326.164062 180.136719 C 321.53125 190.511719 314.898438 197.253906 302.917969 198.21875 C 295.015625 198.855469 287.050781 196.421875 279.242188 197.660156 C 275.59375 198.242188 275.644531 203.078125 279.085938 203.953125 C 289.339844 206.566406 302.886719 207.492188 312.949219 203.671875 C 317.527344 201.9375 321.902344 199.113281 325.050781 195.3125 C 328.527344 191.117188 328.539062 186.324219 329.566406 181.167969 C 329.964844 179.171875 326.984375 178.300781 326.164062 180.136719 Z M 326.164062 180.136719 " fill-opacity="1" fill-rule="nonzero"/></g></g></g></svg>