<svg xmlns="http://www.w3.org/2000/svg" xmlns:xlink="http://www.w3.org/1999/xlink" width="990" zoomAndPan="magnify" viewBox="0 0 742.5 269.999989" height="360" preserveAspectRatio="xMidYMid meet" version="1.0"><defs><clipPath id="5040d632c1"><path d="M 210 0.0898438 L 515 0.0898438 L 515 220 L 210 220 Z M 210 0.0898438 " clip-rule="nonzero"/></clipPath><clipPath id="9282410d7b"><path d="M 515 0.0898438 L 541 0.0898438 L 541 22 L 515 22 Z M 515 0.0898438 " clip-rule="nonzero"/></clipPath><clipPath id="ad9881c52a"><path d="M 311 0.0898438 L 338 0.0898438 L 338 15 L 311 15 Z M 311 0.0898438 " clip-rule="nonzero"/></clipPath><clipPath id="5a3eec1f09"><path d="M 366 0.0898438 L 394 0.0898438 L 394 17 L 366 17 Z M 366 0.0898438 " clip-rule="nonzero"/></clipPath><clipPath id="f305158eba"><path d="M 286 0.0898438 L 290 0.0898438 L 290 4 L 286 4 Z M 286 0.0898438 " clip-rule="nonzero"/></clipPath><clipPath id="f89624db80"><path d="M 346 0.0898438 L 354 0.0898438 L 354 17 L 346 17 Z M 346 0.0898438 " clip-rule="nonzero"/></clipPath><clipPath id="5346817e0e"><path d="M 422 0.0898438 L 430 0.0898438 L 430 8 L 422 8 Z M 422 0.0898438 " clip-rule="nonzero"/></clipPath></defs><g clip-path="url(#5040d632c1)"><path fill="#ffffff" d="M 346.277344 110.4375 C 346.113281 108.773438 345.933594 107.09375 345.753906 105.429688 C 343.71875 87.367188 342.917969 65.648438 324.171875 56.804688 C 311.683594 50.917969 296.507812 54.648438 284.777344 61.949219 C 273.050781 69.230469 263.65625 79.667969 253.101562 88.570312 C 247.792969 93.046875 239.855469 99.75 232.558594 99.246094 C 224.1875 98.648438 215.921875 93.699219 211.984375 86.179688 C 208.179688 78.910156 213.171875 69.914062 218.613281 64.535156 C 224.039062 59.167969 231.039062 55.71875 237.996094 52.613281 C 241.402344 51.082031 264.472656 43.007812 253.992188 35.828125 C 251.539062 34.148438 248.195312 34.582031 245.414062 35.652344 C 240.851562 37.40625 236.957031 40.617188 232.378906 42.355469 C 227.800781 44.09375 221.792969 43.8125 219.03125 39.785156 C 217.246094 37.183594 217.335938 33.644531 218.523438 30.730469 C 219.699219 27.800781 221.824219 25.378906 223.996094 23.089844 C 233.6875 12.832031 245.609375 0.972656 260.980469 5.3125 C 265.273438 6.515625 269.199219 8.847656 273.554688 9.84375 C 277.035156 10.648438 282.175781 10.515625 284.71875 7.554688 C 287.527344 4.285156 281.714844 1.429688 282.238281 -2.179688 C 282.488281 -3.933594 284.199219 -5.214844 285.953125 -5.511719 C 287.707031 -5.808594 289.492188 -5.332031 291.183594 -4.753906 C 298.023438 -2.417969 304.265625 1.582031 309.320312 6.722656 C 314.480469 11.984375 316.753906 18.035156 323.8125 21.15625 C 326.058594 22.152344 328.46875 22.777344 330.921875 22.972656 C 333.03125 23.136719 335.914062 23.609375 337.953125 23.164062 C 342.691406 22.109375 344.984375 16.460938 344.714844 11.613281 C 344.449219 6.753906 342.441406 2.144531 342.039062 -2.699219 C 341.636719 -7.546875 343.570312 -13.253906 348.207031 -14.683594 C 352.550781 -16.019531 357.246094 -12.78125 359.089844 -8.632812 C 360.917969 -4.46875 360.589844 0.285156 360.039062 4.792969 C 358.910156 14.050781 360.085938 29.050781 373.449219 27.652344 C 379.839844 26.984375 385.058594 22.214844 388.894531 17.054688 C 393.816406 10.441406 396.207031 3.289062 402.914062 -1.898438 C 409.066406 -6.65625 416.707031 -9.539062 424.496094 -9.804688 C 426.949219 -9.894531 429.519531 -9.6875 431.632812 -8.425781 C 433.742188 -7.160156 435.199219 -4.542969 434.472656 -2.195312 C 433.253906 1.699219 427.066406 2.886719 426.875 6.960938 C 426.742188 9.875 430.203125 11.851562 433.089844 11.4375 C 435.972656 11.019531 438.351562 9.058594 440.699219 7.316406 C 447.09375 2.605469 454.449219 -0.769531 462.164062 -2.65625 C 470.015625 -4.574219 476.835938 -4.054688 484.640625 -3.339844 C 491.65625 -2.714844 498.984375 -1.332031 504.351562 3.230469 C 509.703125 7.792969 512.128906 16.460938 507.847656 22.050781 C 504.917969 25.871094 499.894531 27.253906 495.402344 29.019531 C 488.773438 31.652344 482.023438 38.417969 487.597656 45.671875 C 491.644531 50.933594 499.921875 49.042969 505.632812 51.707031 C 510.832031 54.144531 515.175781 59.40625 514.683594 65.128906 C 514 73.023438 504.960938 77.480469 497.054688 77.78125 C 472.957031 78.671875 452.101562 56.136719 428.136719 58.8125 C 411.949219 60.609375 398.957031 74.046875 392.894531 89.167969 C 386.605469 104.789062 388.6875 120.636719 385.519531 136.601562 C 382.128906 154.664062 383.914062 172.351562 384.820312 190.636719 C 385.28125 199.882812 385.117188 210.613281 377.9375 216.457031 C 371.605469 221.601562 361.675781 220.484375 355.34375 215.34375 C 349.011719 210.199219 345.859375 201.964844 345.011719 193.847656 C 344.164062 185.730469 345.339844 177.554688 346.171875 169.4375 C 348.105469 149.816406 348.148438 130.03125 346.277344 110.4375 Z M 346.277344 110.4375 " fill-opacity="1" fill-rule="nonzero"/></g><path fill="#ffffff" d="M 196.523438 49.492188 C 195.542969 51.542969 194.917969 53.921875 195.632812 56.074219 C 196.34375 58.230469 198.828125 59.882812 200.9375 59.050781 C 201.992188 58.632812 202.765625 57.695312 203.480469 56.804688 C 205.710938 54.011719 207.925781 51.230469 210.15625 48.433594 C 211.820312 46.339844 213.394531 43.945312 212.117188 41.242188 C 211.152344 39.1875 209.546875 38.714844 207.464844 39.339844 C 202.753906 40.707031 198.558594 45.195312 196.523438 49.492188 Z M 196.523438 49.492188 " fill-opacity="1" fill-rule="nonzero"/><g clip-path="url(#9282410d7b)"><path fill="#ffffff" d="M 517.40625 15.375 C 517.671875 15.804688 517.96875 16.222656 518.28125 16.609375 C 520.777344 19.65625 524.71875 21.335938 528.640625 21.605469 C 532.402344 21.855469 536.476562 20.726562 538.796875 17.753906 C 547.074219 7.15625 522.414062 -7.027344 516.570312 5.519531 C 515.128906 8.640625 515.589844 12.433594 517.40625 15.375 Z M 517.40625 15.375 " fill-opacity="1" fill-rule="nonzero"/></g><path fill="#ffffff" d="M 522.652344 60.757812 C 521.746094 61.949219 521.449219 63.554688 521.746094 65.011719 C 522.042969 66.480469 522.890625 67.789062 524.019531 68.785156 C 524.910156 69.574219 526.011719 70.183594 527.1875 70.375 C 529.089844 70.6875 531.125 69.828125 532.226562 68.25 C 533.324219 66.675781 533.445312 64.460938 532.507812 62.78125 C 531.480469 60.921875 529.5625 60.089844 527.601562 59.597656 C 526.726562 59.375 526.128906 58.960938 525.195312 59.152344 C 524.210938 59.347656 523.277344 59.957031 522.652344 60.757812 Z M 522.652344 60.757812 " fill-opacity="1" fill-rule="nonzero"/><g clip-path="url(#ad9881c52a)"><path fill="#ffffff" d="M 316.085938 2.886719 C 317.808594 5.90625 319.445312 9.042969 321.925781 11.480469 C 324.410156 13.917969 327.992188 15.539062 331.367188 14.707031 C 334.800781 13.859375 337.371094 10.320312 337.089844 6.796875 C 336.925781 4.761719 335.585938 2.589844 333.566406 2.398438 C 332.152344 2.265625 330.832031 3.097656 329.433594 3.363281 C 327.039062 3.808594 324.648438 2.515625 322.820312 0.894531 C 320.988281 -0.722656 319.503906 -2.714844 317.527344 -4.144531 C 316.234375 -5.078125 311.832031 -7.085938 311.742188 -3.890625 C 311.714844 -2.730469 313.171875 -1.601562 313.808594 -0.710938 C 314.644531 0.4375 315.371094 1.65625 316.085938 2.886719 Z M 316.085938 2.886719 " fill-opacity="1" fill-rule="nonzero"/></g><g clip-path="url(#5a3eec1f09)"><path fill="#ffffff" d="M 383.558594 5.773438 C 382.355469 8.0625 381.386719 10.5 379.886719 12.609375 C 378.382812 14.722656 376.242188 16.550781 373.671875 16.90625 C 371.515625 17.203125 369.199219 16.355469 367.890625 14.632812 C 366.566406 12.90625 366.402344 10.335938 367.605469 8.523438 C 368.738281 6.8125 370.789062 5.996094 372.660156 5.164062 C 377.582031 2.960938 382.144531 -0.0546875 386.101562 -3.726562 C 387.839844 -5.347656 389.609375 -7.25 391.988281 -7.859375 C 395.242188 -8.691406 393.890625 -6.507812 392.386719 -5.226562 C 388.777344 -2.179688 385.757812 1.582031 383.558594 5.773438 Z M 383.558594 5.773438 " fill-opacity="1" fill-rule="nonzero"/></g><path fill="#ffffff" d="M 262.347656 90.488281 C 260.117188 93.671875 258.167969 98.039062 260.414062 101.207031 C 262.363281 103.957031 266.613281 104.0625 269.570312 102.457031 C 272.53125 100.851562 274.582031 97.996094 276.734375 95.410156 C 283.039062 87.84375 291.183594 81.867188 300.207031 77.929688 C 304.832031 75.90625 309.691406 74.417969 314.65625 73.527344 C 316.859375 73.125 325.449219 73.75 326.726562 72.042969 C 329.492188 68.339844 317.511719 63.40625 315.207031 62.75 C 306.09375 60.132812 295.40625 64.519531 287.363281 68.695312 C 277.464844 73.808594 268.769531 81.332031 262.347656 90.488281 Z M 262.347656 90.488281 " fill-opacity="1" fill-rule="nonzero"/><path fill="#ffffff" d="M 439.511719 67.449219 C 448.875 69.46875 457.171875 74.746094 465.226562 79.933594 C 467.8125 81.601562 470.726562 83.949219 470.28125 86.996094 C 469.820312 90.101562 465.867188 91.558594 462.835938 90.710938 C 459.816406 89.863281 457.484375 87.515625 455.058594 85.539062 C 447.507812 79.355469 437.667969 76.070312 427.914062 76.367188 C 424.675781 76.472656 418.296875 79.058594 416.632812 75.132812 C 414.847656 70.941406 420.289062 69.007812 423.261719 68.058594 C 428.496094 66.378906 434.203125 66.289062 439.511719 67.449219 Z M 439.511719 67.449219 " fill-opacity="1" fill-rule="nonzero"/><path fill="#000000" d="M 232.332031 62.707031 C 229.792969 64.101562 227.398438 65.707031 225.363281 67.65625 C 224.855469 68.148438 224.382812 68.652344 223.921875 69.1875 C 223.472656 69.722656 223.042969 70.273438 222.65625 70.835938 C 222.269531 71.417969 221.914062 72.011719 221.585938 72.621094 C 221.273438 73.230469 220.976562 73.871094 220.738281 74.507812 C 219.757812 77.082031 219.429688 79.90625 220.070312 82.597656 C 220.695312 85.273438 222.195312 87.828125 224.53125 89.566406 C 224.203125 89.402344 223.875 89.253906 223.5625 89.046875 C 223.25 88.867188 222.953125 88.632812 222.65625 88.421875 C 222.078125 87.960938 221.554688 87.425781 221.066406 86.863281 C 220.589844 86.28125 220.1875 85.65625 219.816406 84.988281 C 219.460938 84.320312 219.179688 83.621094 218.941406 82.90625 C 218.71875 82.179688 218.554688 81.4375 218.449219 80.691406 C 218.359375 79.933594 218.34375 79.175781 218.375 78.417969 C 218.421875 77.660156 218.523438 76.902344 218.6875 76.160156 C 218.851562 75.414062 219.074219 74.6875 219.339844 73.988281 C 219.625 73.289062 219.9375 72.605469 220.292969 71.9375 C 220.664062 71.285156 221.066406 70.644531 221.511719 70.035156 C 221.957031 69.441406 222.449219 68.859375 222.953125 68.308594 C 223.472656 67.773438 224.023438 67.269531 224.589844 66.792969 C 226.878906 64.890625 229.554688 63.539062 232.332031 62.707031 Z M 232.332031 62.707031 " fill-opacity="1" fill-rule="nonzero"/><path fill="#000000" d="M 258.75 10.453125 C 257.113281 10.203125 255.480469 10.203125 253.886719 10.410156 C 252.296875 10.632812 250.738281 11.035156 249.234375 11.613281 L 248.105469 12.046875 C 247.914062 12.121094 247.734375 12.195312 247.539062 12.28125 L 246.992188 12.519531 C 246.246094 12.832031 245.535156 13.203125 244.804688 13.5625 C 243.378906 14.320312 241.964844 15.109375 240.628906 16 C 239.261719 16.863281 237.96875 17.84375 236.6875 18.824219 C 236.066406 19.34375 235.425781 19.835938 234.816406 20.371094 L 233.894531 21.15625 L 232.988281 21.976562 L 232.542969 22.390625 L 232.109375 22.824219 L 231.234375 23.671875 L 230.371094 24.546875 L 229.941406 24.976562 L 229.523438 25.425781 L 228.675781 26.316406 C 228.410156 26.628906 228.140625 26.925781 227.859375 27.238281 L 227.441406 27.699219 L 227.042969 28.175781 C 226.773438 28.484375 226.507812 28.796875 226.238281 29.109375 C 226.65625 28.398438 227.058594 27.683594 227.53125 27 C 227.753906 26.65625 227.992188 26.316406 228.230469 25.972656 L 228.960938 24.976562 L 229.332031 24.472656 L 229.71875 23.980469 L 230.503906 23.015625 L 231.324219 22.078125 L 231.738281 21.617188 C 231.871094 21.46875 232.023438 21.320312 232.171875 21.171875 L 233.03125 20.28125 C 233.328125 19.984375 233.628906 19.699219 233.9375 19.417969 L 234.386719 18.988281 C 234.535156 18.839844 234.699219 18.703125 234.847656 18.570312 L 235.78125 17.753906 C 236.09375 17.484375 236.4375 17.234375 236.761719 16.964844 C 237.089844 16.714844 237.417969 16.445312 237.757812 16.207031 L 238.769531 15.480469 C 238.933594 15.359375 239.113281 15.242188 239.289062 15.121094 L 239.8125 14.78125 L 240.332031 14.4375 L 240.597656 14.273438 L 240.867188 14.113281 L 241.953125 13.472656 C 242.308594 13.25 242.695312 13.070312 243.050781 12.878906 L 243.601562 12.59375 C 243.78125 12.492188 243.972656 12.402344 244.167969 12.328125 C 244.925781 11.984375 245.683594 11.628906 246.46875 11.347656 L 247.050781 11.125 C 247.242188 11.050781 247.4375 10.976562 247.644531 10.914062 L 248.847656 10.542969 C 250.453125 10.054688 252.132812 9.769531 253.8125 9.726562 C 255.507812 9.667969 257.203125 9.890625 258.75 10.453125 Z M 258.75 10.453125 " fill-opacity="1" fill-rule="nonzero"/><g clip-path="url(#f305158eba)"><path fill="#000000" d="M 289.550781 -1.898438 C 289.148438 -1.378906 288.835938 -0.945312 288.597656 -0.5 C 288.359375 -0.0546875 288.167969 0.375 288.035156 0.820312 C 287.898438 1.269531 287.824219 1.730469 287.796875 2.234375 C 287.765625 2.738281 287.78125 3.273438 287.839844 3.929688 C 287.261719 3.617188 286.859375 3.050781 286.636719 2.414062 C 286.429688 1.773438 286.414062 1.058594 286.605469 0.390625 C 286.800781 -0.277344 287.203125 -0.871094 287.722656 -1.289062 C 288.242188 -1.691406 288.894531 -1.957031 289.550781 -1.898438 Z M 289.550781 -1.898438 " fill-opacity="1" fill-rule="nonzero"/></g><g clip-path="url(#f89624db80)"><path fill="#000000" d="M 353.144531 -10.609375 C 352.503906 -10.714844 351.878906 -10.652344 351.316406 -10.445312 C 350.75 -10.253906 350.230469 -9.925781 349.785156 -9.523438 C 349.339844 -9.121094 348.964844 -8.660156 348.667969 -8.15625 C 348.59375 -8.039062 348.535156 -7.902344 348.460938 -7.769531 C 348.402344 -7.636719 348.34375 -7.503906 348.296875 -7.367188 C 348.195312 -7.085938 348.117188 -6.820312 348.042969 -6.519531 C 347.910156 -5.941406 347.835938 -5.363281 347.808594 -4.753906 C 347.777344 -4.15625 347.792969 -3.535156 347.820312 -2.925781 C 347.851562 -2.300781 347.894531 -1.691406 347.957031 -1.050781 L 348.105469 0.851562 C 348.28125 3.394531 348.402344 5.921875 348.476562 8.460938 C 348.535156 11.003906 348.550781 13.546875 348.417969 16.105469 C 347.925781 13.589844 347.597656 11.0625 347.300781 8.539062 C 347.019531 6.011719 346.796875 3.484375 346.617188 0.941406 C 346.542969 -0.324219 346.4375 -1.585938 346.425781 -2.894531 C 346.410156 -4.203125 346.5 -5.554688 346.929688 -6.847656 C 347.035156 -7.175781 347.167969 -7.488281 347.316406 -7.800781 C 347.390625 -7.949219 347.480469 -8.113281 347.570312 -8.261719 C 347.660156 -8.410156 347.761719 -8.558594 347.867188 -8.691406 C 348.28125 -9.242188 348.789062 -9.71875 349.351562 -10.105469 C 349.917969 -10.476562 350.558594 -10.757812 351.226562 -10.847656 C 351.390625 -10.863281 351.554688 -10.890625 351.730469 -10.890625 C 351.820312 -10.890625 351.894531 -10.890625 351.984375 -10.890625 L 352.238281 -10.863281 C 352.398438 -10.847656 352.5625 -10.800781 352.710938 -10.773438 C 352.847656 -10.726562 352.996094 -10.652344 353.144531 -10.609375 Z M 353.144531 -10.609375 " fill-opacity="1" fill-rule="nonzero"/></g><g clip-path="url(#5346817e0e)"><path fill="#000000" d="M 427.1875 -7.011719 C 427.558594 -7.101562 428.003906 -7.027344 428.363281 -6.820312 C 428.539062 -6.714844 428.703125 -6.582031 428.851562 -6.433594 C 429 -6.269531 429.121094 -6.089844 429.222656 -5.898438 C 429.328125 -5.703125 429.402344 -5.480469 429.445312 -5.257812 C 429.492188 -5.035156 429.507812 -4.8125 429.507812 -4.589844 C 429.492188 -4.144531 429.386719 -3.710938 429.222656 -3.308594 C 429.058594 -2.910156 428.835938 -2.539062 428.585938 -2.210938 C 428.332031 -1.867188 428.0625 -1.585938 427.78125 -1.304688 C 427.5 -1.019531 427.21875 -0.769531 426.949219 -0.515625 C 426.816406 -0.398438 426.683594 -0.261719 426.5625 -0.144531 C 426.445312 -0.0117188 426.308594 0.09375 426.191406 0.226562 C 425.210938 1.253906 424.378906 2.398438 423.859375 3.691406 C 423.605469 4.332031 423.425781 5.015625 423.367188 5.726562 C 423.308594 6.441406 423.367188 7.167969 423.515625 7.925781 C 423.070312 7.304688 422.757812 6.558594 422.625 5.773438 C 422.488281 4.984375 422.550781 4.152344 422.726562 3.363281 C 422.921875 2.574219 423.234375 1.816406 423.648438 1.121094 C 423.753906 0.941406 423.859375 0.777344 423.976562 0.613281 L 424.332031 0.125 C 424.453125 -0.0390625 424.585938 -0.1875 424.71875 -0.335938 C 424.851562 -0.484375 424.988281 -0.632812 425.121094 -0.785156 C 425.253906 -0.933594 425.402344 -1.066406 425.550781 -1.199219 C 425.699219 -1.332031 425.835938 -1.46875 425.984375 -1.601562 L 426.832031 -2.328125 C 427.097656 -2.566406 427.351562 -2.804688 427.589844 -3.042969 C 427.707031 -3.160156 427.8125 -3.296875 427.902344 -3.414062 C 428.003906 -3.546875 428.09375 -3.683594 428.167969 -3.816406 C 428.242188 -3.949219 428.332031 -4.097656 428.390625 -4.246094 C 428.449219 -4.394531 428.496094 -4.542969 428.539062 -4.691406 C 428.585938 -4.839844 428.597656 -5.003906 428.597656 -5.152344 C 428.597656 -5.300781 428.597656 -5.449219 428.554688 -5.613281 C 428.480469 -5.925781 428.332031 -6.222656 428.109375 -6.476562 C 427.886719 -6.746094 427.574219 -6.9375 427.1875 -7.011719 Z M 427.1875 -7.011719 " fill-opacity="1" fill-rule="nonzero"/></g><path fill="#000000" d="M 501.78125 13.652344 C 501.335938 12.65625 500.695312 11.777344 499.953125 11.019531 C 499.210938 10.261719 498.347656 9.621094 497.441406 9.085938 C 496.535156 8.539062 495.566406 8.078125 494.570312 7.691406 C 494.082031 7.496094 493.574219 7.304688 493.070312 7.125 C 492.566406 6.960938 492.042969 6.796875 491.539062 6.648438 C 491.035156 6.484375 490.511719 6.320312 489.992188 6.203125 L 488.433594 5.800781 C 488.179688 5.726562 487.910156 5.683594 487.644531 5.625 L 486.855469 5.460938 L 486.070312 5.296875 L 485.683594 5.222656 L 485.28125 5.164062 L 483.703125 4.910156 C 483.183594 4.820312 482.648438 4.777344 482.113281 4.714844 L 481.3125 4.628906 C 481.042969 4.597656 480.777344 4.566406 480.507812 4.554688 L 478.902344 4.464844 C 478.636719 4.449219 478.367188 4.433594 478.101562 4.417969 L 475.691406 4.417969 L 474.085938 4.492188 L 473.285156 4.523438 C 473.015625 4.539062 472.75 4.566406 472.480469 4.597656 L 470.875 4.746094 C 470.609375 4.761719 470.339844 4.820312 470.074219 4.851562 L 469.269531 4.953125 C 468.734375 5.027344 468.199219 5.089844 467.679688 5.207031 L 466.105469 5.503906 C 465.96875 5.535156 465.835938 5.550781 465.703125 5.578125 L 465.316406 5.667969 L 464.527344 5.863281 L 463.742188 6.054688 L 463.355469 6.144531 C 463.21875 6.171875 463.101562 6.21875 462.96875 6.246094 C 461.941406 6.546875 460.886719 6.8125 459.875 7.183594 L 459.101562 7.4375 L 458.714844 7.570312 C 458.582031 7.617188 458.464844 7.660156 458.328125 7.703125 C 457.824219 7.898438 457.332031 8.105469 456.828125 8.300781 C 456.574219 8.402344 456.324219 8.492188 456.070312 8.597656 L 455.328125 8.921875 C 454.835938 9.148438 454.332031 9.371094 453.824219 9.578125 C 454.285156 9.296875 454.746094 9.011719 455.222656 8.714844 L 455.921875 8.300781 C 456.160156 8.164062 456.398438 8.046875 456.648438 7.914062 C 457.125 7.660156 457.617188 7.40625 458.105469 7.15625 C 458.226562 7.09375 458.34375 7.035156 458.480469 6.976562 L 459.59375 6.484375 C 460.589844 6.023438 461.628906 5.683594 462.65625 5.296875 C 462.789062 5.253906 462.910156 5.191406 463.042969 5.164062 L 463.445312 5.042969 L 464.230469 4.804688 L 465.019531 4.566406 L 465.421875 4.449219 C 465.554688 4.40625 465.6875 4.390625 465.820312 4.34375 C 466.890625 4.09375 467.960938 3.808594 469.046875 3.648438 C 469.582031 3.558594 470.132812 3.453125 470.683594 3.378906 L 472.316406 3.1875 C 472.585938 3.15625 472.867188 3.113281 473.136719 3.097656 L 473.953125 3.050781 L 475.601562 2.949219 L 478.085938 2.949219 C 478.367188 2.949219 478.636719 2.976562 478.917969 2.976562 L 480.566406 3.066406 C 480.851562 3.082031 481.117188 3.125 481.386719 3.140625 L 482.203125 3.230469 C 483.304688 3.335938 484.386719 3.542969 485.472656 3.734375 L 485.875 3.808594 L 486.277344 3.898438 L 487.078125 4.09375 L 487.882812 4.285156 C 488.148438 4.34375 488.417969 4.40625 488.683594 4.492188 C 489.738281 4.820312 490.796875 5.101562 491.820312 5.503906 C 493.886719 6.21875 495.9375 7.15625 497.753906 8.433594 C 498.660156 9.085938 499.492188 9.832031 500.175781 10.707031 L 500.429688 11.035156 C 500.503906 11.152344 500.578125 11.257812 500.667969 11.375 C 500.742188 11.496094 500.828125 11.597656 500.890625 11.71875 L 501.082031 12.074219 L 501.1875 12.253906 L 501.277344 12.445312 L 501.4375 12.820312 C 501.617188 13.128906 501.691406 13.382812 501.78125 13.652344 Z M 501.78125 13.652344 " fill-opacity="1" fill-rule="nonzero"/><path fill="#000000" d="M 508.261719 65.171875 C 508.21875 64.59375 508.070312 64.027344 507.832031 63.539062 C 507.578125 63.03125 507.265625 62.585938 506.894531 62.1875 C 506.152344 61.382812 505.199219 60.816406 504.1875 60.355469 C 503.179688 59.910156 502.09375 59.554688 500.992188 59.152344 C 500.441406 58.960938 499.90625 58.75 499.359375 58.558594 L 497.738281 57.933594 C 495.566406 57.101562 493.425781 56.210938 491.300781 55.273438 C 489.175781 54.335938 487.078125 53.339844 485.027344 52.226562 C 487.300781 52.777344 489.515625 53.460938 491.730469 54.1875 C 493.933594 54.917969 496.117188 55.703125 498.273438 56.550781 L 499.894531 57.191406 C 500.429688 57.414062 500.964844 57.621094 501.5 57.84375 C 502.035156 58.066406 502.570312 58.292969 503.105469 58.527344 C 503.640625 58.765625 504.1875 59.035156 504.710938 59.332031 C 505.230469 59.628906 505.75 59.972656 506.210938 60.371094 C 506.6875 60.773438 507.117188 61.234375 507.445312 61.738281 C 507.785156 62.246094 508.054688 62.808594 508.203125 63.40625 C 508.277344 63.703125 508.320312 64 508.335938 64.296875 C 508.351562 64.59375 508.335938 64.890625 508.261719 65.171875 Z M 508.261719 65.171875 " fill-opacity="1" fill-rule="nonzero"/><path fill="#000000" d="M 418.507812 49.550781 C 414.476562 50.917969 410.640625 52.6875 407.058594 54.886719 C 403.476562 57.070312 400.164062 59.671875 397.175781 62.585938 C 394.1875 65.515625 391.527344 68.769531 389.25 72.292969 C 386.976562 75.816406 385.117188 79.621094 383.660156 83.621094 C 384.523438 79.445312 386.128906 75.414062 388.253906 71.683594 C 390.394531 67.953125 393.058594 64.519531 396.132812 61.515625 C 399.210938 58.515625 402.703125 55.914062 406.480469 53.859375 C 410.253906 51.839844 414.3125 50.324219 418.507812 49.550781 Z M 418.507812 49.550781 " fill-opacity="1" fill-rule="nonzero"/><path fill="#000000" d="M 380.289062 106.738281 C 380.273438 108.609375 380.140625 110.453125 380.019531 112.296875 C 379.886719 114.140625 379.753906 115.96875 379.605469 117.8125 C 379.453125 119.640625 379.292969 121.484375 379.128906 123.3125 C 378.949219 125.15625 378.769531 126.984375 378.472656 128.839844 C 378.132812 127 378 125.125 377.953125 123.265625 C 377.910156 121.410156 377.96875 119.535156 378.117188 117.675781 C 378.265625 115.820312 378.519531 113.976562 378.859375 112.132812 C 379.21875 110.320312 379.664062 108.503906 380.289062 106.738281 Z M 380.289062 106.738281 " fill-opacity="1" fill-rule="nonzero"/><path fill="#000000" d="M 375.558594 158.957031 C 375.84375 161.886719 375.960938 164.816406 376.050781 167.742188 C 376.125 170.671875 376.140625 173.601562 376.109375 176.515625 C 376.082031 179.441406 375.992188 182.355469 375.859375 185.285156 C 375.785156 186.742188 375.722656 188.242188 375.382812 189.714844 C 375.203125 190.441406 374.964844 191.171875 374.609375 191.839844 C 374.5625 191.929688 374.519531 192.003906 374.476562 192.09375 L 374.328125 192.332031 C 374.238281 192.496094 374.117188 192.644531 374 192.792969 C 373.941406 192.867188 373.878906 192.941406 373.820312 193 L 373.628906 193.207031 C 373.492188 193.339844 373.359375 193.460938 373.210938 193.578125 C 373.316406 193.429688 373.433594 193.28125 373.523438 193.132812 L 373.671875 192.894531 C 373.71875 192.820312 373.761719 192.746094 373.804688 192.65625 C 373.878906 192.496094 373.96875 192.347656 374.042969 192.167969 L 374.148438 191.914062 C 374.179688 191.824219 374.207031 191.75 374.238281 191.660156 C 374.460938 190.992188 374.59375 190.28125 374.652344 189.582031 C 374.789062 188.167969 374.714844 186.726562 374.683594 185.253906 C 374.609375 182.328125 374.59375 179.398438 374.625 176.484375 C 374.652344 173.554688 374.742188 170.640625 374.875 167.714844 C 375.039062 164.800781 375.234375 161.871094 375.558594 158.957031 Z M 375.558594 158.957031 " fill-opacity="1" fill-rule="nonzero"/><path fill="#000000" d="M 277.40625 56.03125 C 278.996094 54.945312 280.632812 53.9375 282.339844 53.042969 C 282.773438 52.820312 283.1875 52.582031 283.632812 52.375 L 284.941406 51.75 C 285.371094 51.527344 285.820312 51.363281 286.265625 51.171875 C 286.710938 50.976562 287.15625 50.785156 287.601562 50.605469 L 288.957031 50.085938 C 289.179688 49.996094 289.402344 49.90625 289.640625 49.832031 L 290.324219 49.609375 L 291.707031 49.148438 L 293.101562 48.746094 L 293.800781 48.539062 C 294.039062 48.480469 294.277344 48.421875 294.5 48.359375 L 295.914062 48.019531 C 296.386719 47.898438 296.863281 47.824219 297.339844 47.722656 C 297.816406 47.632812 298.289062 47.515625 298.765625 47.441406 C 299.71875 47.289062 300.667969 47.113281 301.636719 47.007812 C 302.109375 46.949219 302.601562 46.890625 303.078125 46.84375 L 304.519531 46.726562 C 304.757812 46.710938 304.996094 46.679688 305.246094 46.667969 L 305.976562 46.636719 L 307.433594 46.578125 L 308.890625 46.5625 L 309.617188 46.5625 C 309.855469 46.5625 310.109375 46.578125 310.347656 46.578125 C 311.3125 46.605469 312.277344 46.636719 313.246094 46.742188 C 314.210938 46.828125 315.179688 46.964844 316.128906 47.171875 C 317.082031 47.378906 318.03125 47.648438 318.921875 48.050781 C 319.148438 48.152344 319.371094 48.242188 319.578125 48.359375 C 319.683594 48.421875 319.800781 48.464844 319.90625 48.523438 L 320.21875 48.703125 C 320.632812 48.957031 321.019531 49.238281 321.390625 49.535156 C 319.726562 48.570312 317.867188 48.078125 315.996094 47.871094 C 314.121094 47.648438 312.234375 47.675781 310.332031 47.738281 C 310.09375 47.738281 309.855469 47.738281 309.617188 47.75 L 308.90625 47.796875 L 307.476562 47.871094 L 306.066406 47.988281 L 305.351562 48.050781 C 305.113281 48.0625 304.875 48.09375 304.636719 48.125 L 303.226562 48.273438 C 302.75 48.332031 302.289062 48.40625 301.8125 48.464844 C 300.878906 48.585938 299.941406 48.746094 299.003906 48.910156 C 298.527344 48.984375 298.066406 49.089844 297.605469 49.179688 C 297.144531 49.269531 296.671875 49.355469 296.210938 49.460938 L 294.828125 49.773438 C 294.589844 49.832031 294.367188 49.878906 294.128906 49.9375 L 293.445312 50.113281 L 292.0625 50.472656 L 290.695312 50.875 L 290.011719 51.066406 C 289.789062 51.140625 289.566406 51.214844 289.328125 51.289062 L 287.972656 51.71875 C 284.390625 52.910156 280.867188 54.394531 277.40625 56.03125 Z M 277.40625 56.03125 " fill-opacity="1" fill-rule="nonzero"/></svg>