<svg xmlns="http://www.w3.org/2000/svg" xmlns:xlink="http://www.w3.org/1999/xlink" width="990" zoomAndPan="magnify" viewBox="0 0 742.5 269.999989" height="360" preserveAspectRatio="xMidYMid meet" version="1.0"><defs><clipPath id="9608cbd302"><path d="M 0 4.105469 L 263 4.105469 L 263 263 L 0 263 Z M 0 4.105469 " clip-rule="nonzero"/></clipPath><clipPath id="e4fb56438e"><path d="M 22 5 L 262.863281 5 L 262.863281 258.953125 L 22 258.953125 Z M 22 5 " clip-rule="nonzero"/></clipPath><clipPath id="1757bd8ac4"><path d="M 1 0.167969 L 32 0.167969 L 32 49 L 1 49 Z M 1 0.167969 " clip-rule="nonzero"/></clipPath><clipPath id="294b30ae2c"><rect x="0" width="263" y="0" height="259"/></clipPath></defs><g clip-path="url(#9608cbd302)"><g transform="matrix(1, 0, 0, 1, 0, 4)"><g clip-path="url(#294b30ae2c)"><g clip-path="url(#e4fb56438e)"><path fill="#ffffff" d="M 79.585938 38.273438 C 80.632812 39.402344 81.625 40.597656 82.523438 41.574219 C 92.375 52.542969 96.410156 68.5625 92.617188 82.84375 C 87.0625 103.730469 67.101562 118.351562 61.285156 139.152344 C 56.894531 154.835938 61.417969 172.066406 70.414062 185.640625 C 79.410156 199.214844 92.46875 209.609375 106.125 218.484375 C 134.867188 237.152344 167.289062 250.144531 200.972656 256.492188 C 213.3125 258.8125 226.261719 260.214844 238.257812 256.542969 C 250.257812 252.863281 261.117188 242.996094 262.488281 230.507812 C 263.671875 219.773438 257.71875 209.285156 249.6875 202.054688 C 235.515625 189.28125 216.964844 185.476562 198.8125 182.285156 C 194.558594 181.535156 190.117188 180.707031 186.707031 178.058594 C 183.292969 175.40625 181.351562 170.324219 183.605469 166.644531 C 185.089844 164.226562 187.902344 163.027344 190.304688 161.507812 C 192.710938 159.984375 195.035156 157.472656 194.503906 154.671875 C 193.949219 151.738281 190.375 150.230469 187.425781 150.746094 C 184.476562 151.261719 182.003906 153.175781 179.515625 154.847656 C 168.019531 162.621094 153.820312 166.207031 140.015625 165.148438 C 132.855469 164.589844 126.890625 163.382812 121.574219 158.382812 C 116.726562 153.800781 112.972656 147.890625 111.914062 141.21875 C 109.984375 129.070312 116.957031 117.34375 124.699219 107.777344 C 132.445312 98.210938 141.496094 89.066406 145.003906 77.273438 C 149.539062 62 145.585938 44.484375 136.742188 31.464844 C 135.421875 29.523438 133.902344 27.59375 131.792969 26.574219 C 129.6875 25.554688 126.820312 25.730469 125.339844 27.550781 C 123.085938 30.339844 125.257812 34.441406 124.90625 38 C 124.648438 40.691406 122.730469 43.152344 120.191406 44.0625 C 114.414062 46.15625 109.277344 41.371094 105.664062 37.6875 C 99.453125 31.382812 93.296875 25.335938 86.136719 19.984375 C 79.261719 14.847656 71.871094 10.199219 63.6875 7.605469 C 55.507812 5.007812 46.417969 4.585938 38.441406 7.765625 C 30.464844 10.949219 23.847656 18.054688 22.503906 26.535156 C 21.753906 31.261719 23.304688 37.023438 27.800781 38.652344 C 31.621094 40.027344 35.695312 37.878906 39.40625 36.234375 C 47.097656 32.851562 55.671875 31.574219 64.027344 32.417969 C 67.753906 32.796875 72.78125 33.300781 76.066406 35.242188 C 77.292969 35.964844 78.472656 37.078125 79.585938 38.273438 Z M 79.585938 38.273438 " fill-opacity="1" fill-rule="nonzero"/></g><path fill="#ffffff" d="M 126.601562 134.875 C 126.414062 139.617188 126.96875 144.65625 129.808594 148.449219 C 132.691406 152.308594 137.527344 154.304688 142.3125 154.753906 C 147.09375 155.203125 151.90625 154.277344 156.605469 153.285156 C 159.078125 152.757812 161.660156 152.160156 163.617188 150.527344 C 165.5625 148.898438 166.636719 145.933594 165.332031 143.761719 C 163.535156 140.785156 159.039062 141.246094 156.105469 139.371094 C 145.613281 132.671875 162.027344 115.117188 146.550781 110.699219 C 132.554688 106.691406 127.023438 124.289062 126.601562 134.875 Z M 126.601562 134.875 " fill-opacity="1" fill-rule="nonzero"/><path fill="#ffffff" d="M 73.132812 42.636719 C 81.460938 47.800781 86.652344 57.324219 87.480469 67.09375 C 88.3125 76.863281 85.0625 86.742188 79.4375 94.773438 C 77.359375 97.75 74.859375 100.578125 71.625 102.222656 C 68.390625 103.863281 64.273438 104.164062 61.203125 102.207031 C 56.214844 99.042969 56.023438 91.648438 58.199219 86.144531 C 60.375 80.640625 64.257812 75.859375 65.726562 70.125 C 67.25 64.171875 65.890625 57.554688 62.125 52.703125 C 59.828125 49.742188 46.730469 44.6875 50.398438 40.339844 C 54.707031 35.242188 68.796875 39.957031 73.132812 42.636719 Z M 73.132812 42.636719 " fill-opacity="1" fill-rule="nonzero"/><path fill="#ffffff" d="M 206.273438 144.683594 C 206.964844 145.878906 206.828125 147.550781 205.796875 148.460938 C 205.253906 148.953125 204.519531 149.195312 203.785156 149.265625 C 202.359375 149.414062 200.835938 148.953125 199.871094 147.890625 C 198.90625 146.832031 198.59375 145.175781 199.261719 143.910156 C 200.675781 141.289062 205.023438 142.523438 206.273438 144.683594 Z M 206.273438 144.683594 " fill-opacity="1" fill-rule="nonzero"/><path fill="#ffffff" d="M 130.816406 18.351562 C 130.84375 19.78125 130.082031 21.191406 128.886719 21.96875 C 127.988281 22.550781 126.902344 22.769531 125.84375 22.742188 C 124.714844 22.726562 123.53125 22.414062 122.757812 21.601562 C 121.875 20.675781 121.683594 19.210938 122.148438 18.011719 C 122.609375 16.816406 123.65625 15.90625 124.835938 15.429688 C 125.882812 15.011719 127.867188 14.574219 128.980469 14.984375 C 130.136719 15.417969 130.789062 17.253906 130.816406 18.351562 Z M 130.816406 18.351562 " fill-opacity="1" fill-rule="nonzero"/><g clip-path="url(#1757bd8ac4)"><path fill="#ffffff" d="M 15.152344 30.773438 C 15.273438 34.5625 16.101562 38.4375 15.191406 42.121094 C 14.269531 45.800781 10.679688 49.253906 7.023438 48.246094 C 3.898438 47.390625 2.378906 43.886719 1.726562 40.707031 C 0 32.253906 1.617188 23.175781 6.15625 15.839844 C 10.695312 8.5 18.101562 2.996094 26.429688 0.769531 C 27.816406 0.402344 29.390625 0.144531 30.601562 0.933594 C 34 3.160156 28.941406 4.75 27.679688 5.59375 C 25.03125 7.332031 22.746094 9.859375 20.914062 12.414062 C 17.09375 17.714844 14.945312 24.238281 15.152344 30.773438 Z M 15.152344 30.773438 " fill-opacity="1" fill-rule="nonzero"/></g><path fill="#000000" d="M 249.933594 218.78125 L 250.121094 219.460938 C 250.175781 219.691406 250.257812 219.910156 250.285156 220.140625 C 250.367188 220.601562 250.476562 221.066406 250.515625 221.527344 L 250.597656 222.21875 L 250.640625 222.914062 C 250.679688 223.375 250.652344 223.851562 250.652344 224.3125 C 250.597656 226.175781 250.21875 228.007812 249.621094 229.761719 L 249.511719 230.089844 C 249.46875 230.195312 249.429688 230.304688 249.386719 230.414062 L 249.128906 231.054688 L 249.0625 231.214844 L 248.996094 231.378906 L 248.84375 231.691406 C 248.75 231.894531 248.65625 232.113281 248.546875 232.316406 C 248.125 233.132812 247.664062 233.945312 247.132812 234.695312 C 246.085938 236.203125 244.863281 237.601562 243.476562 238.8125 C 243.125 239.109375 242.785156 239.421875 242.417969 239.695312 C 242.242188 239.832031 242.050781 239.980469 241.875 240.117188 L 241.316406 240.511719 C 240.949219 240.78125 240.554688 241.027344 240.175781 241.285156 C 239.984375 241.421875 239.78125 241.53125 239.589844 241.652344 C 239.386719 241.773438 239.199219 241.894531 238.992188 242.003906 C 237.390625 242.914062 235.691406 243.664062 233.953125 244.289062 C 233.515625 244.449219 233.070312 244.574219 232.632812 244.722656 L 231.96875 244.925781 C 231.75 244.996094 231.519531 245.0625 231.300781 245.117188 C 230.855469 245.238281 230.40625 245.363281 229.957031 245.457031 L 229.277344 245.605469 C 229.046875 245.660156 228.828125 245.714844 228.597656 245.753906 C 226.777344 246.121094 224.941406 246.367188 223.09375 246.503906 C 221.246094 246.652344 219.386719 246.707031 217.523438 246.664062 C 215.664062 246.625 213.800781 246.488281 211.953125 246.3125 C 210.089844 246.136719 208.242188 245.890625 206.394531 245.59375 C 205.472656 245.441406 204.546875 245.28125 203.621094 245.117188 C 203.160156 245.035156 202.699219 244.953125 202.238281 244.859375 C 201.773438 244.777344 201.3125 244.683594 200.851562 244.585938 C 193.5 243.105469 186.214844 241.136719 178.796875 239.777344 C 186.082031 241.691406 193.253906 243.933594 200.621094 245.621094 C 204.300781 246.476562 208.027344 247.15625 211.789062 247.589844 C 213.679688 247.808594 215.566406 247.941406 217.46875 247.984375 C 219.371094 248.023438 221.273438 247.984375 223.175781 247.847656 C 225.078125 247.683594 226.96875 247.441406 228.84375 247.046875 C 230.703125 246.652344 232.566406 246.175781 234.359375 245.496094 C 236.152344 244.832031 237.894531 244.015625 239.550781 243.039062 C 241.207031 242.058594 242.757812 240.917969 244.171875 239.601562 C 244.347656 239.4375 244.523438 239.273438 244.6875 239.097656 L 245.191406 238.582031 L 245.679688 238.050781 C 245.84375 237.875 246.003906 237.699219 246.15625 237.507812 C 246.453125 237.125 246.765625 236.773438 247.050781 236.378906 L 247.472656 235.796875 L 247.867188 235.183594 C 248.382812 234.382812 248.832031 233.527344 249.238281 232.65625 C 249.335938 232.4375 249.429688 232.207031 249.523438 231.992188 L 249.660156 231.664062 L 249.726562 231.5 L 249.78125 231.339844 L 250.015625 230.660156 C 250.054688 230.550781 250.09375 230.425781 250.121094 230.320312 L 250.21875 229.980469 L 250.40625 229.285156 C 250.460938 229.054688 250.515625 228.824219 250.558594 228.59375 L 250.640625 228.238281 L 250.679688 228.0625 L 250.707031 227.886719 L 250.816406 227.179688 C 250.828125 227.058594 250.855469 226.949219 250.871094 226.828125 L 250.898438 226.472656 L 250.964844 225.765625 C 250.976562 225.535156 250.976562 225.292969 250.992188 225.046875 L 251.003906 224.695312 L 251.003906 224.515625 L 250.992188 224.339844 C 250.964844 223.863281 250.964844 223.390625 250.898438 222.914062 L 250.816406 222.207031 C 250.773438 221.976562 250.734375 221.746094 250.691406 221.515625 C 250.625 221.050781 250.476562 220.589844 250.351562 220.140625 C 250.300781 219.910156 250.21875 219.691406 250.136719 219.460938 Z M 249.933594 218.78125 " fill-opacity="1" fill-rule="nonzero"/><path fill="#000000" d="M 151.457031 229.53125 C 148.835938 227.941406 146.15625 226.488281 143.464844 225.058594 C 140.777344 223.632812 138.046875 222.261719 135.3125 220.929688 C 132.570312 219.597656 129.808594 218.308594 127.023438 217.058594 C 124.238281 215.820312 121.441406 214.625 118.574219 213.539062 C 121.195312 215.128906 123.871094 216.59375 126.5625 218.007812 C 129.253906 219.433594 131.984375 220.808594 134.714844 222.140625 C 137.460938 223.46875 140.21875 224.761719 143.003906 225.996094 C 145.789062 227.261719 148.589844 228.457031 151.457031 229.53125 Z M 151.457031 229.53125 " fill-opacity="1" fill-rule="nonzero"/><path fill="#000000" d="M 89.804688 112.34375 C 86.230469 115.402344 83.09375 119.003906 80.429688 122.917969 C 77.753906 126.828125 75.550781 131.070312 73.867188 135.5 C 72.183594 139.929688 71 144.5625 70.402344 149.265625 C 69.789062 153.964844 69.75 158.734375 70.386719 163.394531 C 70.320312 158.695312 70.660156 154.019531 71.449219 149.425781 C 72.25 144.835938 73.472656 140.335938 75.128906 135.988281 C 76.773438 131.640625 78.855469 127.453125 81.3125 123.5 C 83.773438 119.53125 86.625 115.808594 89.804688 112.34375 Z M 89.804688 112.34375 " fill-opacity="1" fill-rule="nonzero"/><path fill="#000000" d="M 85.023438 36.019531 C 82.917969 33.789062 80.375 31.929688 77.644531 30.460938 C 74.898438 28.992188 71.949219 27.933594 68.894531 27.28125 C 65.847656 26.628906 62.710938 26.398438 59.613281 26.613281 C 56.515625 26.832031 53.441406 27.496094 50.601562 28.679688 C 53.605469 28.042969 56.621094 27.6875 59.652344 27.6875 C 62.667969 27.675781 65.671875 27.988281 68.609375 28.613281 C 71.542969 29.238281 74.425781 30.175781 77.167969 31.425781 C 79.925781 32.660156 82.535156 34.210938 85.023438 36.019531 Z M 85.023438 36.019531 " fill-opacity="1" fill-rule="nonzero"/><path fill="#000000" d="M 138.902344 48.21875 C 139.6875 51.140625 140.21875 54.089844 140.421875 57.066406 C 140.640625 60.027344 140.574219 63.003906 140.191406 65.953125 C 139.824219 68.886719 139.160156 71.796875 138.207031 74.609375 C 137.257812 77.433594 136.019531 80.152344 134.539062 82.804688 C 136.496094 80.480469 138.046875 77.816406 139.214844 74.988281 C 140.382812 72.164062 141.171875 69.160156 141.550781 66.128906 C 141.929688 63.085938 141.917969 59.988281 141.496094 56.957031 C 141.046875 53.925781 140.207031 50.953125 138.902344 48.21875 Z M 138.902344 48.21875 " fill-opacity="1" fill-rule="nonzero"/><path fill="#000000" d="M 117.824219 162.675781 C 121.234375 165.394531 125.148438 167.511719 129.28125 169.023438 C 133.410156 170.542969 137.773438 171.441406 142.175781 171.738281 C 146.578125 172.039062 151.023438 171.710938 155.316406 170.761719 C 159.609375 169.808594 163.769531 168.234375 167.503906 165.992188 C 163.507812 167.730469 159.351562 168.996094 155.113281 169.726562 C 150.871094 170.460938 146.550781 170.679688 142.269531 170.394531 C 137.992188 170.109375 133.738281 169.320312 129.632812 168.03125 C 125.503906 166.738281 121.546875 164.929688 117.824219 162.675781 Z M 117.824219 162.675781 " fill-opacity="1" fill-rule="nonzero"/><path fill="#000000" d="M 143.152344 114.695312 C 141.210938 115.375 139.445312 116.609375 137.992188 118.09375 C 136.523438 119.585938 135.339844 121.351562 134.429688 123.242188 C 133.519531 125.132812 132.894531 127.128906 132.472656 129.140625 C 132.050781 131.164062 131.820312 133.203125 131.792969 135.253906 C 132.378906 133.285156 132.894531 131.328125 133.507812 129.398438 C 134.105469 127.480469 134.796875 125.605469 135.652344 123.8125 C 136.507812 122.03125 137.542969 120.335938 138.777344 118.785156 C 140.015625 117.25 141.46875 115.863281 143.152344 114.695312 Z M 143.152344 114.695312 " fill-opacity="1" fill-rule="nonzero"/></g></g></g></svg>