<svg xmlns="http://www.w3.org/2000/svg" xmlns:xlink="http://www.w3.org/1999/xlink" width="990" zoomAndPan="magnify" viewBox="0 0 742.5 269.999989" height="360" preserveAspectRatio="xMidYMid meet" version="1.0"><defs><clipPath id="7023f5a88b"><path d="M 3 0.0898438 L 221 0.0898438 L 221 204 L 3 204 Z M 3 0.0898438 " clip-rule="nonzero"/></clipPath></defs><g clip-path="url(#7023f5a88b)"><path fill="#ffffff" d="M 109.84375 61.84375 C 104.929688 53.640625 96.386719 45.625 92.585938 42.734375 C 87.703125 39.03125 83.054688 34.835938 79.886719 29.585938 C 76.722656 24.339844 75.175781 17.875 76.785156 11.960938 C 78.394531 6.046875 83.601562 0.972656 89.71875 0.574219 C 97.050781 0.0898438 103.148438 5.789062 108.234375 11.082031 C 116.628906 19.796875 113.785156 32.902344 119.945312 41.671875 C 128.523438 53.867188 148.207031 34.515625 154.660156 29.320312 C 158.726562 26.035156 163.738281 23.664062 168.957031 23.683594 C 174.183594 23.703125 179.550781 26.496094 181.71875 31.25 C 183.886719 36.007812 181.953125 42.5 177.15625 44.550781 C 170.910156 47.210938 162.375 52.351562 156.828125 56.269531 C 151.277344 60.1875 146.910156 66.425781 147.039062 73.210938 C 147.253906 84.738281 159.359375 92.089844 170.332031 95.652344 C 179.667969 98.691406 189.382812 100.6875 198.34375 104.703125 C 207.308594 108.714844 215.722656 115.179688 219.339844 124.300781 C 222.957031 133.4375 220.359375 145.402344 211.785156 150.203125 C 202.1875 155.578125 190.390625 150.492188 180.292969 146.15625 C 170.191406 141.820312 156.976562 138.792969 149.390625 146.757812 C 144.054688 152.347656 144.03125 161.097656 145.34375 168.71875 C 146.652344 176.339844 148.949219 184.140625 147.101562 191.644531 C 145.257812 199.148438 137.054688 205.792969 130.015625 202.613281 C 124.335938 200.050781 122.566406 192.792969 122.78125 186.566406 C 122.996094 180.34375 124.453125 173.890625 122.414062 168.007812 C 120.289062 161.859375 114.535156 157.4375 108.277344 155.65625 C 102.019531 153.875 95.324219 154.410156 88.957031 155.785156 C 77.128906 158.339844 66.09375 163.664062 54.511719 167.152344 C 42.929688 170.640625 30.039062 172.183594 18.996094 167.238281 C 7.949219 162.289062 0.0273438 149.128906 4.246094 137.792969 C 9.046875 124.914062 25.984375 121.101562 39.421875 124.023438 C 52.859375 126.941406 65.023438 134.445312 78.558594 136.804688 C 84.050781 137.761719 89.882812 137.816406 95.054688 135.722656 C 100.226562 133.617188 104.628906 129.058594 105.421875 123.527344 C 106.421875 116.542969 101.644531 109.960938 96.097656 105.59375 C 90.546875 101.214844 84 98.121094 79.019531 93.109375 C 67.824219 81.851562 72.707031 67.691406 88.722656 77.167969 C 94.023438 80.316406 100.183594 83.910156 105.972656 81.765625 C 115.976562 78.050781 114.65625 69.859375 109.84375 61.84375 Z M 109.84375 61.84375 " fill-opacity="1" fill-rule="nonzero"/></g><path fill="#000000" d="M 13.125 134.371094 C 15.6875 132.78125 18.492188 131.570312 21.398438 130.6875 C 24.308594 129.820312 27.324219 129.28125 30.363281 129.097656 C 33.398438 128.917969 36.460938 129.078125 39.453125 129.605469 C 42.449219 130.128906 45.378906 131 48.105469 132.265625 C 45.21875 131.417969 42.289062 130.785156 39.324219 130.429688 C 36.375 130.078125 33.390625 129.992188 30.425781 130.164062 C 27.464844 130.332031 24.511719 130.785156 21.625 131.484375 C 18.726562 132.203125 15.894531 133.179688 13.125 134.371094 Z M 13.125 134.371094 " fill-opacity="1" fill-rule="nonzero"/><path fill="#000000" d="M 78.429688 78.488281 C 79.449219 78.394531 80.476562 78.480469 81.488281 78.652344 C 82.496094 78.832031 83.484375 79.125 84.4375 79.5 C 85.394531 79.875 86.304688 80.359375 87.15625 80.914062 C 88.003906 81.484375 88.808594 82.128906 89.472656 82.914062 C 88.527344 82.492188 87.636719 82.0625 86.734375 81.65625 C 85.835938 81.25 84.933594 80.863281 84.03125 80.496094 C 83.117188 80.132812 82.207031 79.789062 81.273438 79.46875 C 80.339844 79.132812 79.382812 78.832031 78.429688 78.488281 Z M 78.429688 78.488281 " fill-opacity="1" fill-rule="nonzero"/><path fill="#000000" d="M 91.019531 7.582031 C 92.691406 7.820312 94.335938 8.386719 95.859375 9.160156 C 97.382812 9.945312 98.800781 10.941406 100.054688 12.125 C 101.3125 13.304688 102.40625 14.644531 103.289062 16.117188 C 104.167969 17.585938 104.832031 19.1875 105.175781 20.851562 C 104.414062 19.335938 103.554688 17.910156 102.578125 16.589844 C 101.601562 15.257812 100.519531 14.035156 99.316406 12.90625 C 98.125 11.789062 96.824219 10.78125 95.429688 9.890625 C 94.054688 9 92.574219 8.25 91.019531 7.582031 Z M 91.019531 7.582031 " fill-opacity="1" fill-rule="nonzero"/><path fill="#000000" d="M 171.015625 30.886719 C 169.363281 31.027344 167.753906 31.25 166.1875 31.59375 C 164.609375 31.9375 163.074219 32.410156 161.582031 32.988281 C 160.089844 33.582031 158.640625 34.277344 157.246094 35.09375 C 155.851562 35.910156 154.519531 36.84375 153.21875 37.863281 C 154.207031 36.53125 155.433594 35.371094 156.785156 34.394531 C 158.136719 33.417969 159.628906 32.601562 161.183594 31.992188 C 162.753906 31.378906 164.382812 30.960938 166.046875 30.757812 C 167.699219 30.574219 169.386719 30.585938 171.015625 30.886719 Z M 171.015625 30.886719 " fill-opacity="1" fill-rule="nonzero"/><path fill="#000000" d="M 164.996094 104.667969 C 169.75 104.121094 174.632812 104.488281 179.324219 105.644531 C 184.015625 106.792969 188.523438 108.738281 192.570312 111.398438 C 196.617188 114.050781 200.191406 117.421875 203.109375 121.273438 C 206.03125 125.117188 208.304688 129.453125 209.691406 134.039062 C 207.875 129.605469 205.441406 125.472656 202.445312 121.789062 C 199.460938 118.109375 195.917969 114.898438 191.96875 112.300781 C 188.019531 109.714844 183.660156 107.738281 179.101562 106.460938 C 174.546875 105.164062 169.78125 104.574219 164.996094 104.667969 Z M 164.996094 104.667969 " fill-opacity="1" fill-rule="nonzero"/><path fill="#000000" d="M 140.40625 182.90625 C 140.683594 184.164062 140.664062 185.484375 140.4375 186.773438 C 140.210938 188.058594 139.761719 189.304688 139.136719 190.464844 C 138.515625 191.613281 137.710938 192.675781 136.753906 193.566406 C 135.800781 194.457031 134.703125 195.199219 133.503906 195.648438 C 134.480469 194.8125 135.359375 193.941406 136.144531 192.988281 C 136.925781 192.042969 137.613281 191.023438 138.195312 189.949219 C 138.773438 188.875 139.257812 187.75 139.621094 186.578125 C 139.984375 185.398438 140.234375 184.183594 140.40625 182.90625 Z M 140.40625 182.90625 " fill-opacity="1" fill-rule="nonzero"/></svg>